<svg xmlns="http://www.w3.org/2000/svg" xmlns:xlink="http://www.w3.org/1999/xlink" xmlns:lucid="lucid" width="1760" height="1360"><g transform="translate(0 0)" lucid:page-tab-id="HWEp-vi-RSFO"><path d="M720 160h300v223H720z" stroke="#333" stroke-width="2" fill="#fff"/><path d="M720 219.2h300" stroke="#333" stroke-width="2" fill="none"/><use xlink:href="#a" transform="matrix(1,0,0,1,728,168) translate(97.55 14.799999999999999)"/><use xlink:href="#b" transform="matrix(1,0,0,1,728,168) translate(70.07499999999999 36.4)"/><use xlink:href="#c" transform="matrix(1,0,0,1,728,168) translate(139.075 36.4)"/><use xlink:href="#d" transform="matrix(1,0,0,1,732,227.2) translate(0 56)"/><use xlink:href="#e" transform="matrix(1,0,0,1,732,227.2) translate(0 77.60000000000001)"/><use xlink:href="#f" transform="matrix(1,0,0,1,732,227.2) translate(0 99.20000000000002)"/><use xlink:href="#g" transform="matrix(1,0,0,1,732,227.2) translate(93.85000000000001 99.20000000000002)"/><use xlink:href="#h" transform="matrix(1,0,0,1,732,227.2) translate(128.75 99.20000000000002)"/><path d="M720 480h300v197H720z" stroke="#333" stroke-width="2" fill="#fff"/><path d="M720 517.6h300m-300 58.25h300" stroke="#333" stroke-width="2" fill="none"/><use xlink:href="#i" transform="matrix(1,0,0,1,728,488) translate(110 14.6)"/><use xlink:href="#d" transform="matrix(1,0,0,1,732,583.8515103437356) translate(0 25)"/><use xlink:href="#e" transform="matrix(1,0,0,1,732,583.8515103437356) translate(0 46.6)"/><use xlink:href="#f" transform="matrix(1,0,0,1,732,583.8515103437356) translate(0 68.2)"/><use xlink:href="#g" transform="matrix(1,0,0,1,732,583.8515103437356) translate(93.85000000000001 68.2)"/><use xlink:href="#h" transform="matrix(1,0,0,1,732,583.8515103437356) translate(128.75 68.2)"/><path d="M453.15 75c0-4.42 3.58-8 8-8h836.75c4.4 0 8 3.58 8 8v25.16c0 4.4-3.6 8-8 8H461.15c-4.42 0-8-3.6-8-8z" stroke="#000" stroke-opacity="0" stroke-width="2" fill="#fff" fill-opacity="0"/><use xlink:href="#j" transform="matrix(1,0,0,1,457.1465527853429,70.99999999994924) translate(257.87851851851855 23.657777777777778)"/><use xlink:href="#k" transform="matrix(1,0,0,1,457.1465527853429,70.99999999994924) translate(503.639012345679 23.657777777777778)"/><path d="M729.63 106.8H1039M729.65 106.8h-1.02M1038.96 106.8h1.03" stroke="#a9afb8" stroke-width="2" fill="none"/><path d="M453.15 116.16c0-4.42 3.58-8 8-8h837.7c4.42 0 8 3.58 8 8V119c0 4.42-3.58 8-8 8h-837.7c-4.42 0-8-3.58-8-8z" stroke="#000" stroke-opacity="0" stroke-width="2" fill="#fff" fill-opacity="0"/><use xlink:href="#l" transform="matrix(1,0,0,1,457.1465527853434,112.15522395684805) translate(319.44837448559673 14.917037037037037)"/><use xlink:href="#m" transform="matrix(1,0,0,1,457.1465527853434,112.15522395684805) translate(359.34621399176956 14.917037037037037)"/><use xlink:href="#n" transform="matrix(1,0,0,1,457.1465527853434,112.15522395684805) translate(429.836646090535 14.917037037037037)"/><use xlink:href="#o" transform="matrix(1,0,0,1,457.1465527853434,112.15522395684805) translate(442.2861316872428 14.917037037037037)"/><use xlink:href="#p" transform="matrix(1,0,0,1,457.1465527853434,112.15522395684805) translate(473.6860288065844 14.917037037037037)"/><use xlink:href="#q" transform="matrix(1,0,0,1,457.1465527853434,112.15522395684805) translate(499.1798559670782 14.917037037037037)"/><path d="M380 820.3h300v175H380z" stroke="#333" stroke-width="2" fill="#fff"/><path d="M380 857.9h300M380 916h300" stroke="#333" stroke-width="2" fill="none"/><use xlink:href="#r" transform="matrix(1,0,0,1,388,828.3030206874712) translate(75.14999999999999 14.6)"/><use xlink:href="#s" transform="matrix(1,0,0,1,388,828.3030206874712) translate(173.9 14.6)"/><use xlink:href="#t" transform="matrix(1,0,0,1,392,924.0030206874712) translate(0 24.799999999999997)"/><use xlink:href="#u" transform="matrix(1,0,0,1,392,924.0030206874712) translate(101.35000000000001 24.799999999999997)"/><use xlink:href="#v" transform="matrix(1,0,0,1,392,924.0030206874712) translate(0 46.4)"/><use xlink:href="#w" transform="matrix(1,0,0,1,392,924.0030206874712) translate(104.35000000000001 46.4)"/><use xlink:href="#x" transform="matrix(1,0,0,1,392,924.0030206874712) translate(134.25 46.4)"/><path d="M740 820.3h300v175H740z" stroke="#333" stroke-width="2" fill="#fff"/><path d="M740 857.9h300M740 916h300" stroke="#333" stroke-width="2" fill="none"/><use xlink:href="#r" transform="matrix(1,0,0,1,748,828.3030206874712) translate(75.35 14.6)"/><use xlink:href="#y" transform="matrix(1,0,0,1,748,828.3030206874712) translate(174.10000000000002 14.6)"/><use xlink:href="#t" transform="matrix(1,0,0,1,752,924.0030206874712) translate(0 24.799999999999997)"/><use xlink:href="#z" transform="matrix(1,0,0,1,752,924.0030206874712) translate(101.35000000000001 24.799999999999997)"/><use xlink:href="#v" transform="matrix(1,0,0,1,752,924.0030206874712) translate(0 46.4)"/><use xlink:href="#w" transform="matrix(1,0,0,1,752,924.0030206874712) translate(104.35000000000001 46.4)"/><use xlink:href="#A" transform="matrix(1,0,0,1,752,924.0030206874712) translate(134.25 46.4)"/><path d="M1080 816.24h300v175h-300z" stroke="#333" stroke-width="2" fill="#fff"/><path d="M1080 853.84h300m-300 58.1h300" stroke="#333" stroke-width="2" fill="none"/><use xlink:href="#r" transform="matrix(1,0,0,1,1088,824.2350417478284) translate(68.17499999999998 14.6)"/><use xlink:href="#B" transform="matrix(1,0,0,1,1088,824.2350417478284) translate(166.925 14.6)"/><use xlink:href="#t" transform="matrix(1,0,0,1,1092,919.9350417478284) translate(0 24.799999999999997)"/><use xlink:href="#C" transform="matrix(1,0,0,1,1092,919.9350417478284) translate(101.35000000000001 24.799999999999997)"/><use xlink:href="#v" transform="matrix(1,0,0,1,1092,919.9350417478284) translate(0 46.4)"/><use xlink:href="#w" transform="matrix(1,0,0,1,1092,919.9350417478284) translate(104.35000000000001 46.4)"/><use xlink:href="#D" transform="matrix(1,0,0,1,1092,919.9350417478284) translate(134.25 46.4)"/><path d="M688.63 592.63H542c-6.63 0-12 5.37-12 12V818.8" stroke="#333" fill="none"/><path d="M718.3 592.63l-14.86 14.85-15.15-14.85 15.14-14.85z" stroke="#333" fill="#333"/><path d="M530.5 819.3h-1v-.5h1z" fill="#333"/><path d="M870 708.38v30.27c0 5.52 4.48 10 10 10s10 4.48 10 10v60.15" stroke="#333" fill="none"/><path d="M870 678.7l14.85 14.86L870 708.7l-14.85-15.14z" stroke="#333" fill="#333"/><path d="M890.5 819.3h-1v-.5h1z" fill="#333"/><path d="M1051.38 578.5H1218c6.63 0 12 5.37 12 12v224.24" stroke="#333" fill="none"/><path d="M1021.7 578.5l14.86-14.85 15.15 14.85-15.14 14.85z" stroke="#333" fill="#333"/><path d="M1230.5 815.24h-1v-.52h1z" fill="#333"/><path d="M380 1056.24h300v201H380z" stroke="#333" stroke-width="2" fill="#fff"/><path d="M380 1115.44h300" stroke="#333" stroke-width="2" fill="none"/><use xlink:href="#a" transform="matrix(1,0,0,1,388,1064.2350417478285) translate(97.55 14.799999999999999)"/><use xlink:href="#E" transform="matrix(1,0,0,1,388,1064.2350417478285) translate(35.224999999999994 36.4)"/><use xlink:href="#F" transform="matrix(1,0,0,1,388,1064.2350417478285) translate(133.97500000000002 36.4)"/><use xlink:href="#G" transform="matrix(1,0,0,1,388,1064.2350417478285) translate(173.925 36.4)"/><use xlink:href="#t" transform="matrix(1,0,0,1,392,1123.4350417478286) translate(0 56.3)"/><use xlink:href="#u" transform="matrix(1,0,0,1,392,1123.4350417478286) translate(101.35000000000001 56.3)"/><use xlink:href="#v" transform="matrix(1,0,0,1,392,1123.4350417478286) translate(0 77.9)"/><use xlink:href="#w" transform="matrix(1,0,0,1,392,1123.4350417478286) translate(104.35000000000001 77.9)"/><use xlink:href="#x" transform="matrix(1,0,0,1,392,1123.4350417478286) translate(134.25 77.9)"/><path d="M740 1060.3h300v201H740z" stroke="#333" stroke-width="2" fill="#fff"/><path d="M740 1119.5h300" stroke="#333" stroke-width="2" fill="none"/><use xlink:href="#a" transform="matrix(1,0,0,1,748,1068.3030206874712) translate(97.55 14.799999999999999)"/><use xlink:href="#E" transform="matrix(1,0,0,1,748,1068.3030206874712) translate(35.42499999999998 36.4)"/><use xlink:href="#H" transform="matrix(1,0,0,1,748,1068.3030206874712) translate(134.175 36.4)"/><use xlink:href="#G" transform="matrix(1,0,0,1,748,1068.3030206874712) translate(173.725 36.4)"/><use xlink:href="#t" transform="matrix(1,0,0,1,752,1127.5030206874712) translate(0 56.3)"/><use xlink:href="#z" transform="matrix(1,0,0,1,752,1127.5030206874712) translate(101.35000000000001 56.3)"/><use xlink:href="#v" transform="matrix(1,0,0,1,752,1127.5030206874712) translate(0 77.9)"/><use xlink:href="#w" transform="matrix(1,0,0,1,752,1127.5030206874712) translate(104.35000000000001 77.9)"/><use xlink:href="#A" transform="matrix(1,0,0,1,752,1127.5030206874712) translate(134.25 77.9)"/><path d="M1080 1056.24h300v201h-300z" stroke="#333" stroke-width="2" fill="#fff"/><path d="M1080 1115.44h300" stroke="#333" stroke-width="2" fill="none"/><use xlink:href="#a" transform="matrix(1,0,0,1,1088,1064.2350417478285) translate(97.55 14.799999999999999)"/><use xlink:href="#E" transform="matrix(1,0,0,1,1088,1064.2350417478285) translate(28.24999999999997 36.4)"/><use xlink:href="#I" transform="matrix(1,0,0,1,1088,1064.2350417478285) translate(126.99999999999999 36.4)"/><use xlink:href="#G" transform="matrix(1,0,0,1,1088,1064.2350417478285) translate(180.9 36.4)"/><use xlink:href="#t" transform="matrix(1,0,0,1,1092,1123.4350417478286) translate(0 56.3)"/><use xlink:href="#C" transform="matrix(1,0,0,1,1092,1123.4350417478286) translate(101.35000000000001 56.3)"/><use xlink:href="#v" transform="matrix(1,0,0,1,1092,1123.4350417478286) translate(0 77.9)"/><use xlink:href="#w" transform="matrix(1,0,0,1,1092,1123.4350417478286) translate(104.35000000000001 77.9)"/><use xlink:href="#D" transform="matrix(1,0,0,1,1092,1123.4350417478286) translate(134.25 77.9)"/><path d="M872.5 412.93c0 1.38-1.12 2.5-2.5 2.5s-2.5-1.12-2.5-2.5 1.12-2.5 2.5-2.5 2.5 1.12 2.5 2.5zm0 10.6c0 1.38-1.12 2.5-2.5 2.5s-2.5-1.12-2.5-2.5c0-1.4 1.12-2.5 2.5-2.5s2.5 1.1 2.5 2.5zm0 10.6c0 1.37-1.12 2.5-2.5 2.5s-2.5-1.13-2.5-2.5c0-1.4 1.12-2.5 2.5-2.5s2.5 1.1 2.5 2.5zm0 10.58c0 1.4-1.12 2.5-2.5 2.5s-2.5-1.1-2.5-2.5c0-1.37 1.12-2.5 2.5-2.5s2.5 1.13 2.5 2.5zm0 10.6c0 1.4-1.12 2.5-2.5 2.5s-2.5-1.1-2.5-2.5c0-1.37 1.12-2.5 2.5-2.5s2.5 1.13 2.5 2.5zm0 10.6c0 1.4-1.12 2.5-2.5 2.5s-2.5-1.1-2.5-2.5c0-1.38 1.12-2.5 2.5-2.5s2.5 1.12 2.5 2.5zm0 10.6c0 1.38-1.12 2.5-2.5 2.5s-2.5-1.12-2.5-2.5 1.12-2.5 2.5-2.5 2.5 1.12 2.5 2.5z" fill="#333"/><path d="M870 388.9l12.73 21.53h-25.46z" stroke="#333" stroke-width="5" fill="#fff"/><path d="M872.5 479h-5v-2.56h5zM532.5 1025.23c0 1.38-1.12 2.5-2.5 2.5s-2.5-1.12-2.5-2.5 1.12-2.5 2.5-2.5 2.5 1.12 2.5 2.5zm0 9.17c0 1.38-1.12 2.5-2.5 2.5s-2.5-1.12-2.5-2.5 1.12-2.5 2.5-2.5 2.5 1.12 2.5 2.5zm0 9.17c0 1.38-1.12 2.5-2.5 2.5s-2.5-1.12-2.5-2.5 1.12-2.5 2.5-2.5 2.5 1.12 2.5 2.5z" fill="#333"/><path d="M530 1001.2l12.73 21.53h-25.46z" stroke="#333" stroke-width="5" fill="#fff"/><path d="M532.5 1055.24h-5v-2.57h5zM892.5 1025.23c0 1.38-1.12 2.5-2.5 2.5s-2.5-1.12-2.5-2.5 1.12-2.5 2.5-2.5 2.5 1.12 2.5 2.5zm0 10.53c0 1.38-1.12 2.5-2.5 2.5s-2.5-1.12-2.5-2.5 1.12-2.5 2.5-2.5 2.5 1.12 2.5 2.5zm0 10.52c0 1.38-1.12 2.5-2.5 2.5s-2.5-1.12-2.5-2.5 1.12-2.5 2.5-2.5 2.5 1.12 2.5 2.5z" fill="#333"/><path d="M890 1001.2l12.73 21.53h-25.46z" stroke="#333" stroke-width="5" fill="#fff"/><path d="M892.5 1059.3h-5v-2.56h5zM1232.5 1021.16c0 1.4-1.12 2.5-2.5 2.5s-2.5-1.1-2.5-2.5c0-1.38 1.12-2.5 2.5-2.5s2.5 1.12 2.5 2.5zm0 10.53c0 1.37-1.12 2.5-2.5 2.5s-2.5-1.13-2.5-2.5c0-1.4 1.12-2.5 2.5-2.5s2.5 1.1 2.5 2.5zm0 10.5c0 1.4-1.12 2.5-2.5 2.5s-2.5-1.1-2.5-2.5c0-1.37 1.12-2.5 2.5-2.5s2.5 1.13 2.5 2.5z" fill="#333"/><path d="M1230 997.15l12.73 21.5h-25.46z" stroke="#333" stroke-width="5" fill="#fff"/><path d="M1232.5 1055.24h-5v-2.57h5z" fill="#333"/><path d="M160 654h260v120H160z" stroke="#333" stroke-width="2" fill="#fff"/><path d="M160 691.6h260m-260 41.1h260" stroke="#333" stroke-width="2" fill="none"/><use xlink:href="#J" transform="matrix(1,0,0,1,168,662) translate(86.05 14.6)"/><use xlink:href="#K" transform="matrix(1,0,0,1,172,699.6) translate(0 16.6)"/><use xlink:href="#L" transform="matrix(1,0,0,1,172,699.6) translate(119.4 16.6)"/><path d="M160 440h260v120H160z" stroke="#333" stroke-width="2" fill="#fff"/><path d="M160 499.2h260" stroke="#333" stroke-width="2" fill="none"/><use xlink:href="#M" transform="matrix(1,0,0,1,168,448) translate(77.55 14.799999999999999)"/><use xlink:href="#N" transform="matrix(1,0,0,1,168,448) translate(46.125 36.4)"/><use xlink:href="#O" transform="matrix(1,0,0,1,168,448) translate(123.025 36.4)"/><use xlink:href="#K" transform="matrix(1,0,0,1,172,507.2) translate(0 26.1)"/><use xlink:href="#P" transform="matrix(1,0,0,1,172,507.2) translate(119.4 26.1)"/><path d="M290 589.93v7.57m0 15.14v15.15m0 15.13v7.57" stroke="#333" stroke-width="5" fill="none"/><path d="M290 565.9l12.73 21.53h-25.46z" stroke="#333" stroke-width="5" fill="#fff"/><path d="M292.5 653h-5v-2.56h5z" fill="#333"/><path d="M290 777.5v118.3c0 6.63 5.37 12 12 12h52.14" stroke="#333" stroke-width="5" fill="none"/><path d="M292.5 777.56h-5V775h5z" fill="#333"/><path d="M370.9 907.8l-14.26 4.64v-9.27z" stroke="#333" stroke-width="5" fill="#333"/><path d="M1280 16.72h465.9V240H1280z" fill="#fff"/><path d="M1309.12 16.72h19.4m19.42 0h19.42m19.4 0h19.42m19.4 0H1445m19.42 0h19.4m19.42 0h19.4m19.43 0h19.4m19.42 0h19.4m19.42 0h19.4m19.42 0h19.4m19.43 0h19.4m19.42 0h9.7v9.3m0 18.6v18.6m0 18.62v18.6m0 18.6v18.62m0 18.6v18.62m0 18.6v18.6m0 18.62v9.3h-9.7m-19.42 0h-19.4m-19.43 0h-19.4m-19.42 0h-19.4m-19.43 0h-19.4m-19.42 0h-19.4m-19.43 0h-19.4m-19.42 0h-19.4m-19.43 0h-19.4m-19.42 0h-19.4m-19.42 0h-19.42m-19.4 0h-19.42m-19.4 0H1280v-9.3m0-18.6v-18.62m0-18.6v-18.6m0-18.62v-18.6m0-18.6V81.83m0-18.6v-18.6m0-18.62v-9.3h9.7" stroke="#333" stroke-width="5" fill="none"/><use xlink:href="#Q" transform="matrix(1,0,0,1,1285,21.715892886981095) translate(83.155 99.80000000000001)"/><use xlink:href="#R" transform="matrix(1,0,0,1,1285,21.715892886981095) translate(119.15500000000002 99.80000000000001)"/><use xlink:href="#R" transform="matrix(1,0,0,1,1285,21.715892886981095) translate(155.15500000000003 99.80000000000001)"/><use xlink:href="#S" transform="matrix(1,0,0,1,1285,21.715892886981095) translate(191.155 99.80000000000001)"/><use xlink:href="#T" transform="matrix(1,0,0,1,1285,21.715892886981095) translate(241.055 99.80000000000001)"/><use xlink:href="#U" transform="matrix(1,0,0,1,1285,21.715892886981095) translate(338.905 99.80000000000001)"/><use xlink:href="#V" transform="matrix(1,0,0,1,1285,21.715892886981095) translate(228 121.4)"/><path d="M1411.9 120.84l.72 1.77-.73 1.78-1.78.73-1.77-.72-.73-1.77.73-1.76 1.77-.73zm-10.1 0l.72 1.77-.73 1.78-1.78.73-1.77-.72-.73-1.77.73-1.76 1.77-.73zm-10.1 0l.72 1.77-.73 1.78-1.78.73-1.77-.72-.73-1.77.73-1.76 1.77-.73zm-10.1 0l.72 1.77-.73 1.78-1.78.73-1.77-.72-.73-1.77.73-1.76 1.77-.73zm-10.1 0l.72 1.77-.73 1.78-1.78.73-1.77-.72-.73-1.77.73-1.76 1.77-.73zm-10.1 0l.72 1.77-.73 1.78-1.78.73-1.77-.72-.73-1.77.73-1.76 1.77-.73zm-10.12 0l.74 1.77-.74 1.78-1.76.73-1.77-.72-.73-1.77.73-1.76 1.77-.73zm-10.1 0l.74 1.77-.74 1.78-1.76.73-1.77-.72-.73-1.77.73-1.76 1.77-.73zm-10.1 0l.74 1.77-.74 1.78-1.76.73-1.77-.72-.73-1.77.73-1.76 1.77-.73zm-10.1 0l.74 1.77-.74 1.78-1.76.73-1.77-.72-.73-1.77.73-1.76 1.77-.73z" fill="#333"/><path d="M1319.28 125.1h-2.56v-5h2.56z" fill="#333"/><path d="M1444.24 122.6l-21.52 12.74v-25.46z" fill="#fff"/><path d="M1449.15 122.6l-28.93 17.12V105.5zm-23.93 8.35l14.1-8.34-14.1-8.33zM1417.4 175.06h-98.06v-5h98.06z" fill="#333"/><path d="M1319.4 175.06h-2.56v-5h2.57zM1445.74 172.56l-14.85 14.85-15.16-14.84 15.15-14.85z" fill="#333"/><path d="M1449.27 172.56l-18.36 18.37-18.73-18.37 18.74-18.37zm-29.96 0l11.57 11.33 11.33-11.34-11.33-11.33z" fill="#333"/><g><use xlink:href="#W" transform="matrix(1,0,0,1,1431.7220862308193,161.758721992481) translate(0.005 14.4)"/></g><path d="M1470.6 154.12h198.74v45.7H1470.6z" fill="#fff" fill-opacity="0"/><g><use xlink:href="#X" transform="matrix(1,0,0,1,1475.593843240051,159.12149726422354) translate(7.125 14.4)"/><use xlink:href="#Y" transform="matrix(1,0,0,1,1475.593843240051,159.12149726422354) translate(52.975 14.4)"/><use xlink:href="#Z" transform="matrix(1,0,0,1,1475.593843240051,159.12149726422354) translate(130.925 14.4)"/></g><path d="M1294.67 68.24h436.56v34.35h-436.56z" fill="#fff" fill-opacity="0"/><g><use xlink:href="#aa" transform="matrix(1,0,0,1,1299.6651373826373,73.24299452844701) translate(38.849999999999994 14.4)"/><use xlink:href="#ab" transform="matrix(1,0,0,1,1299.6651373826373,73.24299452844701) translate(43.849999999999994 14.4)"/><use xlink:href="#ac" transform="matrix(1,0,0,1,1299.6651373826373,73.24299452844701) translate(121.55 14.4)"/><use xlink:href="#ad" transform="matrix(1,0,0,1,1299.6651373826373,73.24299452844701) translate(182.5 14.4)"/><use xlink:href="#ae" transform="matrix(1,0,0,1,1299.6651373826373,73.24299452844701) translate(240.35 14.4)"/><use xlink:href="#af" transform="matrix(1,0,0,1,1299.6651373826373,73.24299452844701) translate(348.29999999999995 14.4)"/></g><path d="M1449.42 33.9h118.9v34.34h-118.9z" fill="#fff" fill-opacity="0"/><g><use xlink:href="#ag" transform="matrix(1,0,0,1,1454.416749546712,38.8915934341364) translate(36.025 14.4)"/></g><path d="M1431.23 700h300v116h-300z" stroke="#333" stroke-width="2" fill="#fff"/><path d="M1431.23 737.6h300m-300 39.42h300" stroke="#333" stroke-width="2" fill="none"/><g><use xlink:href="#ah" transform="matrix(1,0,0,1,1439.2309238708208,708) translate(99.07499999999999 14.6)"/></g><g><use xlink:href="#ai" transform="matrix(1,0,0,1,1443.2309238708208,745.6) translate(0 15.6)"/><use xlink:href="#L" transform="matrix(1,0,0,1,1443.2309238708208,745.6) translate(132.3 15.6)"/></g><path d="M1431.23 500h300v120h-300z" stroke="#333" stroke-width="2" fill="#fff"/><path d="M1431.23 559.2h300" stroke="#333" stroke-width="2" fill="none"/><g><use xlink:href="#M" transform="matrix(1,0,0,1,1439.2309238708208,508) translate(97.55 14.799999999999999)"/><use xlink:href="#N" transform="matrix(1,0,0,1,1439.2309238708208,508) translate(66.125 36.4)"/><use xlink:href="#O" transform="matrix(1,0,0,1,1439.2309238708208,508) translate(143.025 36.4)"/></g><g><use xlink:href="#aj" transform="matrix(1,0,0,1,1443.2309238708208,567.2) translate(0 26.1)"/><use xlink:href="#L" transform="matrix(1,0,0,1,1443.2309238708208,567.2) translate(137.3 26.1)"/></g><path d="M1581.23 649.93v11.64m0 23.3v11.63" stroke="#333" stroke-width="5" fill="none"/><path d="M1581.23 625.9l12.73 21.53h-25.46z" stroke="#333" stroke-width="5" fill="#fff"/><path d="M1583.73 699h-5v-2.56h5z" fill="#333"/><path d="M1581.23 819.5v72.24c0 6.62-5.37 12-12 12h-163.37" stroke="#333" stroke-width="5" fill="none"/><path d="M1583.73 819.56h-5V817h5z" fill="#333"/><path d="M1389.1 903.74l14.26-4.64v9.27z" stroke="#333" stroke-width="5" fill="#333"/><path d="M460 325h220v175H460z" stroke="#333" stroke-width="2" fill="#fff"/><path d="M460 362.6h220m-220 79.7h220" stroke="#333" stroke-width="2" fill="none"/><g><use xlink:href="#ak" transform="matrix(1,0,0,1,468,333) translate(66.25 14.6)"/></g><g><use xlink:href="#al" transform="matrix(1,0,0,1,472,370.6) translate(0 24.799999999999997)"/><use xlink:href="#L" transform="matrix(1,0,0,1,472,370.6) translate(0 46.4)"/></g><path d="M280 102.6h240v132H280z" stroke="#333" stroke-width="2" fill="#fff"/><path d="M280 161.8h240" stroke="#333" stroke-width="2" fill="none"/><g><use xlink:href="#M" transform="matrix(1,0,0,1,288,110.59439562275763) translate(67.55 14.799999999999999)"/><use xlink:href="#am" transform="matrix(1,0,0,1,288,110.59439562275763) translate(36.32499999999999 36.4)"/><use xlink:href="#O" transform="matrix(1,0,0,1,288,110.59439562275763) translate(112.82499999999999 36.4)"/></g><g><use xlink:href="#an" transform="matrix(1,0,0,1,292,169.79439562275763) translate(0 32.1)"/><use xlink:href="#P" transform="matrix(1,0,0,1,292,169.79439562275763) translate(118.30000000000001 32.1)"/></g><path d="M400 264.52v3.28l.4 3.1 1.2 2.9 1.9 2.48 2.5 1.92 2.9 1.2 3.1.4h9.12m18.25 0h18.25m18.25 0h18.25m18.25 0h18.25m18.25 0H558l3.1.4 2.9 1.2 2.5 1.9 1.9 2.5 1.2 2.88.4 3.12v7.42m0 14.85v7.43" stroke="#333" stroke-width="5" fill="none"/><path d="M400 240.5l12.73 21.52h-25.46z" stroke="#333" stroke-width="5" fill="#fff"/><path d="M572.5 324h-5v-2.56h5z" fill="#333"/><path d="M570 503.5V529c0 6.63-5.37 12-12 12h-46c-6.63 0-12 5.37-12 12v165c0 6.63 5.37 12 12 12h176c6.63 0 12 5.37 12 12v153.8c0 6.63 5.37 12 12 12h2.14" stroke="#333" stroke-width="5" fill="none"/><path d="M572.5 503.56h-5V501h5z" fill="#333"/><path d="M730.9 907.8l-14.26 4.64v-9.27z" stroke="#333" stroke-width="5" fill="#333"/><path d="M1425.9 300h320v123h-320z" stroke="#333" stroke-width="2" fill="#fff"/><path d="M1425.9 359.2h320" stroke="#333" stroke-width="2" fill="none"/><g><use xlink:href="#M" transform="matrix(1,0,0,1,1433.896061253458,308) translate(107.55 14.799999999999999)"/><use xlink:href="#ao" transform="matrix(1,0,0,1,1433.896061253458,308) translate(35.39999999999998 36.4)"/><use xlink:href="#ap" transform="matrix(1,0,0,1,1433.896061253458,308) translate(77.34999999999998 36.4)"/><use xlink:href="#aq" transform="matrix(1,0,0,1,1433.896061253458,308) translate(193.75 36.4)"/></g><g><use xlink:href="#ar" transform="matrix(1,0,0,1,1437.896061253458,367.2) translate(0 27.6)"/><use xlink:href="#L" transform="matrix(1,0,0,1,1437.896061253458,367.2) translate(199.2 27.6)"/></g><path d="M720 160h300v223H720z" stroke="#333" stroke-width="2" fill="#fff"/><path d="M720 219.2h300" stroke="#333" stroke-width="2" fill="none"/><g><use xlink:href="#M" transform="matrix(1,0,0,1,728,168) translate(97.55 14.799999999999999)"/><use xlink:href="#as" transform="matrix(1,0,0,1,728,168) translate(70.07499999999999 36.4)"/><use xlink:href="#O" transform="matrix(1,0,0,1,728,168) translate(139.075 36.4)"/></g><g><use xlink:href="#at" transform="matrix(1,0,0,1,732,227.2) translate(0 56)"/><use xlink:href="#au" transform="matrix(1,0,0,1,732,227.2) translate(0 77.60000000000001)"/><use xlink:href="#av" transform="matrix(1,0,0,1,732,227.2) translate(0 99.20000000000002)"/><use xlink:href="#aw" transform="matrix(1,0,0,1,732,227.2) translate(93.85000000000001 99.20000000000002)"/><use xlink:href="#ax" transform="matrix(1,0,0,1,732,227.2) translate(128.75 99.20000000000002)"/></g><path d="M1112.95 300h220v155h-220z" stroke="#333" stroke-width="2" fill="#fff"/><path d="M1112.95 337.6h220m-220 69.7h220" stroke="#333" stroke-width="2" fill="none"/><g><use xlink:href="#ay" transform="matrix(1,0,0,1,1120.948030626729,308) translate(24.32499999999999 14.6)"/></g><g><use xlink:href="#az" transform="matrix(1,0,0,1,1124.948030626729,345.6) translate(0 19.799999999999997)"/><use xlink:href="#L" transform="matrix(1,0,0,1,1124.948030626729,345.6) translate(0 41.4)"/></g><path d="M1395.97 361.5h-8.55l-3.1.63-2.55 1.7-1.72 2.56-.63 3.1-.63 3.1-1.72 2.56-2.54 1.7-3.12.64h-8.74m-17.5 0h-8.73" stroke="#333" stroke-width="5" fill="none"/><path d="M1419.98 361.5l-21.5 12.73v-25.46z" stroke="#333" stroke-width="5" fill="#fff"/><path d="M1336.5 380h-2.55v-5h2.56z" fill="#333"/><path d="M1109.45 377.5h-30.98c-6.62 0-12 5.37-12 12v113.56c0 6.63-5.37 12-12 12h-8.6" stroke="#333" stroke-width="5" fill="none"/><path d="M1111.95 380h-2.57v-5h2.57z" fill="#333"/><path d="M1029.1 515.06l14.26-4.63v9.27z" stroke="#333" stroke-width="5" fill="#333"/><defs><path fill="#333" d="M156-25L96-89v-11l60-65h29v5l-59 66 60 64v5h-30zm-82 0L15-89v-11l59-65h29v5L44-94l59 64v5H74" id="aA"/><path fill="#333" d="M24-231v-30h32v30H24zM24 0v-190h32V0H24" id="aB"/><path fill="#333" d="M117-194c89-4 53 116 60 194h-32v-121c0-31-8-49-39-48C34-167 62-67 57 0H25l-1-190h30c1 10-1 24 2 32 11-22 29-35 61-36" id="aC"/><path fill="#333" d="M59-47c-2 24 18 29 38 22v24C64 9 27 4 27-40v-127H5v-23h24l9-43h21v43h35v23H59v120" id="aD"/><path fill="#333" d="M100-194c63 0 86 42 84 106H49c0 40 14 67 53 68 26 1 43-12 49-29l28 8c-11 28-37 45-77 45C44 4 14-33 15-96c1-61 26-98 85-98zm52 81c6-60-76-77-97-28-3 7-6 17-6 28h103" id="aE"/><path fill="#333" d="M114-163C36-179 61-72 57 0H25l-1-190h30c1 12-1 29 2 39 6-27 23-49 58-41v29" id="aF"/><path fill="#333" d="M101-234c-31-9-42 10-38 44h38v23H63V0H32v-167H5v-23h27c-7-52 17-82 69-68v24" id="aG"/><path fill="#333" d="M141-36C126-15 110 5 73 4 37 3 15-17 15-53c-1-64 63-63 125-63 3-35-9-54-41-54-24 1-41 7-42 31l-33-3c5-37 33-52 76-52 45 0 72 20 72 64v82c-1 20 7 32 28 27v20c-31 9-61-2-59-35zM48-53c0 20 12 33 32 33 41-3 63-29 60-74-43 2-92-5-92 41" id="aH"/><path fill="#333" d="M96-169c-40 0-48 33-48 73s9 75 48 75c24 0 41-14 43-38l32 2c-6 37-31 61-74 61-59 0-76-41-82-99-10-93 101-131 147-64 4 7 5 14 7 22l-32 3c-4-21-16-35-41-35" id="aI"/><path fill="#333" d="M126-25H97v-5l59-64-59-66v-5h29l60 65v11zm-82 0H15v-5l59-64-59-66v-5h29l59 65v11" id="aJ"/><g id="a"><use transform="matrix(0.05,0,0,0.05,0,0)" xlink:href="#aA"/><use transform="matrix(0.05,0,0,0.05,10,0)" xlink:href="#aB"/><use transform="matrix(0.05,0,0,0.05,13.949999999999998,0)" xlink:href="#aC"/><use transform="matrix(0.05,0,0,0.05,23.95,0)" xlink:href="#aD"/><use transform="matrix(0.05,0,0,0.05,28.950000000000003,0)" xlink:href="#aE"/><use transform="matrix(0.05,0,0,0.05,38.95,0)" xlink:href="#aF"/><use transform="matrix(0.05,0,0,0.05,44.900000000000006,0)" xlink:href="#aG"/><use transform="matrix(0.05,0,0,0.05,49.900000000000006,0)" xlink:href="#aH"/><use transform="matrix(0.05,0,0,0.05,59.900000000000006,0)" xlink:href="#aI"/><use transform="matrix(0.05,0,0,0.05,68.9,0)" xlink:href="#aE"/><use transform="matrix(0.05,0,0,0.05,78.9,0)" xlink:href="#aJ"/></g><path fill="#333" d="M169-182c-1-43-94-46-97-3 18 66 151 10 154 114 3 95-165 93-204 36-6-8-10-19-12-30l50-8c3 46 112 56 116 5-17-69-150-10-154-114-4-87 153-88 188-35 5 8 8 18 10 28" id="aK"/><path fill="#333" d="M185-48c-13 30-37 53-82 52C43 2 14-33 14-96s30-98 90-98c62 0 83 45 84 108H66c0 31 8 55 39 56 18 0 30-7 34-22zm-45-69c5-46-57-63-70-21-2 6-4 13-4 21h74" id="aL"/><path fill="#333" d="M135-150c-39-12-60 13-60 57V0H25l-1-190h47c2 13-1 29 3 40 6-28 27-53 61-41v41" id="aM"/><path fill="#333" d="M128 0H69L1-190h53L99-40l48-150h52" id="aN"/><path fill="#333" d="M25-224v-37h50v37H25zM25 0v-190h50V0H25" id="aO"/><path fill="#333" d="M190-63c-7 42-38 67-86 67-59 0-84-38-90-98-12-110 154-137 174-36l-49 2c-2-19-15-32-35-32-30 0-35 28-38 64-6 74 65 87 74 30" id="aP"/><g id="b"><use transform="matrix(0.05,0,0,0.05,0,0)" xlink:href="#aK"/><use transform="matrix(0.05,0,0,0.05,12,0)" xlink:href="#aL"/><use transform="matrix(0.05,0,0,0.05,22,0)" xlink:href="#aM"/><use transform="matrix(0.05,0,0,0.05,29,0)" xlink:href="#aN"/><use transform="matrix(0.05,0,0,0.05,39,0)" xlink:href="#aO"/><use transform="matrix(0.05,0,0,0.05,44,0)" xlink:href="#aP"/><use transform="matrix(0.05,0,0,0.05,54,0)" xlink:href="#aL"/></g><path fill="#333" d="M24 0v-248h52V0H24" id="aQ"/><path fill="#333" d="M135-194c87-1 58 113 63 194h-50c-7-57 23-157-34-157-59 0-34 97-39 157H25l-1-190h47c2 12-1 28 3 38 12-26 28-41 61-42" id="aR"/><path fill="#333" d="M115-3C79 11 28 4 28-45v-112H4v-33h27l15-45h31v45h36v33H77v99c-1 23 16 31 38 25v30" id="aS"/><path fill="#333" d="M121-226c-27-7-43 5-38 36h38v33H83V0H34v-157H6v-33h28c-9-59 32-81 87-68v32" id="aT"/><path fill="#333" d="M133-34C117-15 103 5 69 4 32 3 11-16 11-54c-1-60 55-63 116-61 1-26-3-47-28-47-18 1-26 9-28 27l-52-2c7-38 36-58 82-57s74 22 75 68l1 82c-1 14 12 18 25 15v27c-30 8-71 5-69-32zm-48 3c29 0 43-24 42-57-32 0-66-3-65 30 0 17 8 27 23 27" id="aU"/><g id="c"><use transform="matrix(0.05,0,0,0.05,0,0)" xlink:href="#aQ"/><use transform="matrix(0.05,0,0,0.05,5,0)" xlink:href="#aR"/><use transform="matrix(0.05,0,0,0.05,15.950000000000001,0)" xlink:href="#aS"/><use transform="matrix(0.05,0,0,0.05,21.900000000000002,0)" xlink:href="#aL"/><use transform="matrix(0.05,0,0,0.05,31.900000000000002,0)" xlink:href="#aM"/><use transform="matrix(0.05,0,0,0.05,38.900000000000006,0)" xlink:href="#aT"/><use transform="matrix(0.05,0,0,0.05,44.85000000000001,0)" xlink:href="#aU"/><use transform="matrix(0.05,0,0,0.05,54.85,0)" xlink:href="#aP"/><use transform="matrix(0.05,0,0,0.05,64.85000000000001,0)" xlink:href="#aL"/></g><path fill="#333" d="M177-190C167-65 218 103 67 71c-23-6-38-20-44-43l32-5c15 47 100 32 89-28v-30C133-14 115 1 83 1 29 1 15-40 15-95c0-56 16-97 71-98 29-1 48 16 59 35 1-10 0-23 2-32h30zM94-22c36 0 50-32 50-73 0-42-14-75-50-75-39 0-46 34-46 75s6 73 46 73" id="aV"/><path fill="#333" d="M33 0v-248h34V0H33" id="aW"/><path fill="#333" d="M210-169c-67 3-38 105-44 169h-31v-121c0-29-5-50-35-48C34-165 62-65 56 0H25l-1-190h30c1 10-1 24 2 32 10-44 99-50 107 0 11-21 27-35 58-36 85-2 47 119 55 194h-31v-121c0-29-5-49-35-48" id="aX"/><path fill="#333" d="M135-143c-3-34-86-38-87 0 15 53 115 12 119 90S17 21 10-45l28-5c4 36 97 45 98 0-10-56-113-15-118-90-4-57 82-63 122-42 12 7 21 19 24 35" id="aY"/><path fill="#333" d="M87 75C49 33 22-17 22-94c0-76 28-126 65-167h31c-38 41-64 92-64 168S80 34 118 75H87" id="aZ"/><path fill="#333" d="M33-261c38 41 65 92 65 168S71 34 33 75H2C39 34 66-17 66-93S39-220 2-261h31" id="ba"/><path fill="#333" d="M33-154v-36h34v36H33zM33 0v-36h34V0H33" id="bb"/><g id="d"><use transform="matrix(0.05,0,0,0.05,0,0)" xlink:href="#aV"/><use transform="matrix(0.05,0,0,0.05,10,0)" xlink:href="#aE"/><use transform="matrix(0.05,0,0,0.05,20,0)" xlink:href="#aD"/><use transform="matrix(0.05,0,0,0.05,25,0)" xlink:href="#aW"/><use transform="matrix(0.05,0,0,0.05,30,0)" xlink:href="#aD"/><use transform="matrix(0.05,0,0,0.05,35,0)" xlink:href="#aE"/><use transform="matrix(0.05,0,0,0.05,45,0)" xlink:href="#aX"/><use transform="matrix(0.05,0,0,0.05,59.95,0)" xlink:href="#aY"/><use transform="matrix(0.05,0,0,0.05,68.95,0)" xlink:href="#aZ"/><use transform="matrix(0.05,0,0,0.05,74.9,0)" xlink:href="#ba"/><use transform="matrix(0.05,0,0,0.05,80.85000000000001,0)" xlink:href="#bb"/></g><path fill="#333" d="M205 0l-28-72H64L36 0H1l101-248h38L239 0h-34zm-38-99l-47-123c-12 45-31 82-46 123h93" id="bc"/><path fill="#333" d="M179-190L93 31C79 59 56 82 12 73V49c39 6 53-20 64-50L1-190h34L92-34l54-156h33" id="bd"/><path fill="#333" d="M30 0v-248h33v221h125V0H30" id="be"/><path fill="#333" d="M18-100v-36l175-74v27L42-118l151 64v27" id="bf"/><path fill="#333" d="M140-251c81 0 123 46 123 126C263-46 219 4 140 4 59 4 17-45 17-125s42-126 123-126zm0 227c63 0 89-41 89-101s-29-99-89-99c-61 0-89 39-89 99S79-25 140-24" id="bg"/><path fill="#333" d="M127-220V0H93v-220H8v-28h204v28h-85" id="bh"/><path fill="#333" d="M206 0h-36l-40-164L89 0H53L-1-190h32L70-26l43-164h34l41 164 42-164h31" id="bi"/><path fill="#333" d="M100-194c62-1 85 37 85 99 1 63-27 99-86 99S16-35 15-95c0-66 28-99 85-99zM99-20c44 1 53-31 53-75 0-43-8-75-51-75s-53 32-53 75 10 74 51 75" id="bj"/><path fill="#333" d="M106-169C34-169 62-67 57 0H25v-261h32l-1 103c12-21 28-36 61-36 89 0 53 116 60 194h-32v-121c2-32-8-49-39-48" id="bk"/><path fill="#333" d="M18-27v-27l151-64-151-65v-27l175 74v36" id="bl"/><g id="e"><use transform="matrix(0.05,0,0,0.05,0,0)" xlink:href="#bc"/><use transform="matrix(0.05,0,0,0.05,12,0)" xlink:href="#aF"/><use transform="matrix(0.05,0,0,0.05,17.95,0)" xlink:href="#aF"/><use transform="matrix(0.05,0,0,0.05,23.9,0)" xlink:href="#aH"/><use transform="matrix(0.05,0,0,0.05,33.9,0)" xlink:href="#bd"/><use transform="matrix(0.05,0,0,0.05,42.9,0)" xlink:href="#be"/><use transform="matrix(0.05,0,0,0.05,52.900000000000006,0)" xlink:href="#aB"/><use transform="matrix(0.05,0,0,0.05,56.85,0)" xlink:href="#aY"/><use transform="matrix(0.05,0,0,0.05,65.85,0)" xlink:href="#aD"/><use transform="matrix(0.05,0,0,0.05,70.85,0)" xlink:href="#bf"/><use transform="matrix(0.05,0,0,0.05,81.35,0)" xlink:href="#aW"/><use transform="matrix(0.05,0,0,0.05,86.35,0)" xlink:href="#aD"/><use transform="matrix(0.05,0,0,0.05,91.35,0)" xlink:href="#aE"/><use transform="matrix(0.05,0,0,0.05,101.35,0)" xlink:href="#aX"/><use transform="matrix(0.05,0,0,0.05,116.30000000000001,0)" xlink:href="#bg"/><use transform="matrix(0.05,0,0,0.05,130.3,0)" xlink:href="#aC"/><use transform="matrix(0.05,0,0,0.05,140.3,0)" xlink:href="#aE"/><use transform="matrix(0.05,0,0,0.05,150.3,0)" xlink:href="#bh"/><use transform="matrix(0.05,0,0,0.05,160.25,0)" xlink:href="#bi"/><use transform="matrix(0.05,0,0,0.05,173.2,0)" xlink:href="#bj"/><use transform="matrix(0.05,0,0,0.05,183.2,0)" xlink:href="#bh"/><use transform="matrix(0.05,0,0,0.05,194.14999999999998,0)" xlink:href="#bk"/><use transform="matrix(0.05,0,0,0.05,204.14999999999998,0)" xlink:href="#aF"/><use transform="matrix(0.05,0,0,0.05,210.09999999999997,0)" xlink:href="#aE"/><use transform="matrix(0.05,0,0,0.05,220.09999999999997,0)" xlink:href="#aE"/><use transform="matrix(0.05,0,0,0.05,230.09999999999997,0)" xlink:href="#bl"/></g><path fill="#333" d="M30-248c118-7 216 8 213 122C240-48 200 0 122 0H30v-248zM63-27c89 8 146-16 146-99s-60-101-146-95v194" id="bm"/><g id="f"><use transform="matrix(0.05,0,0,0.05,0,0)" xlink:href="#aV"/><use transform="matrix(0.05,0,0,0.05,10,0)" xlink:href="#aE"/><use transform="matrix(0.05,0,0,0.05,20,0)" xlink:href="#aD"/><use transform="matrix(0.05,0,0,0.05,25,0)" xlink:href="#aW"/><use transform="matrix(0.05,0,0,0.05,30,0)" xlink:href="#aD"/><use transform="matrix(0.05,0,0,0.05,35,0)" xlink:href="#aE"/><use transform="matrix(0.05,0,0,0.05,45,0)" xlink:href="#aX"/><use transform="matrix(0.05,0,0,0.05,59.95,0)" xlink:href="#aZ"/><use transform="matrix(0.05,0,0,0.05,65.9,0)" xlink:href="#aW"/><use transform="matrix(0.05,0,0,0.05,70.9,0)" xlink:href="#bm"/><use transform="matrix(0.05,0,0,0.05,83.85000000000001,0)" xlink:href="#bb"/></g><g id="g"><use transform="matrix(0.05,0,0,0.05,0,0)" xlink:href="#aB"/><use transform="matrix(0.05,0,0,0.05,3.95,0)" xlink:href="#aC"/><use transform="matrix(0.05,0,0,0.05,13.949999999999998,0)" xlink:href="#aD"/><use transform="matrix(0.05,0,0,0.05,18.95,0)" xlink:href="#ba"/><use transform="matrix(0.05,0,0,0.05,24.9,0)" xlink:href="#bb"/></g><g id="h"><use transform="matrix(0.05,0,0,0.05,0,0)" xlink:href="#aW"/><use transform="matrix(0.05,0,0,0.05,5,0)" xlink:href="#aD"/><use transform="matrix(0.05,0,0,0.05,10,0)" xlink:href="#aE"/><use transform="matrix(0.05,0,0,0.05,20,0)" xlink:href="#aX"/><use transform="matrix(0.05,0,0,0.05,34.95,0)" xlink:href="#bg"/><use transform="matrix(0.05,0,0,0.05,48.95,0)" xlink:href="#aC"/><use transform="matrix(0.05,0,0,0.05,58.95,0)" xlink:href="#bh"/><use transform="matrix(0.05,0,0,0.05,68.9,0)" xlink:href="#bi"/><use transform="matrix(0.05,0,0,0.05,81.85000000000001,0)" xlink:href="#bj"/><use transform="matrix(0.05,0,0,0.05,91.85000000000001,0)" xlink:href="#bh"/><use transform="matrix(0.05,0,0,0.05,102.80000000000001,0)" xlink:href="#bk"/><use transform="matrix(0.05,0,0,0.05,112.80000000000001,0)" xlink:href="#aF"/><use transform="matrix(0.05,0,0,0.05,118.75,0)" xlink:href="#aE"/><use transform="matrix(0.05,0,0,0.05,128.75,0)" xlink:href="#aE"/></g><g id="i"><use transform="matrix(0.05,0,0,0.05,0,0)" xlink:href="#aK"/><use transform="matrix(0.05,0,0,0.05,12,0)" xlink:href="#aL"/><use transform="matrix(0.05,0,0,0.05,22,0)" xlink:href="#aM"/><use transform="matrix(0.05,0,0,0.05,29,0)" xlink:href="#aN"/><use transform="matrix(0.05,0,0,0.05,39,0)" xlink:href="#aO"/><use transform="matrix(0.05,0,0,0.05,44,0)" xlink:href="#aP"/><use transform="matrix(0.05,0,0,0.05,54,0)" xlink:href="#aL"/></g><path fill="#a9afb8" d="M240-174c0 40-23 61-54 70L253 0h-59l-57-94H76V0H24v-248c93 4 217-23 216 74zM76-134c48-2 112 12 112-38 0-48-66-32-112-35v73" id="bn"/><path fill="#a9afb8" d="M185-48c-13 30-37 53-82 52C43 2 14-33 14-96s30-98 90-98c62 0 83 45 84 108H66c0 31 8 55 39 56 18 0 30-7 34-22zm-45-69c5-46-57-63-70-21-2 6-4 13-4 21h74" id="bo"/><path fill="#a9afb8" d="M135-194c53 0 70 44 70 98 0 56-19 98-73 100-31 1-45-17-59-34 3 33 2 69 2 105H25l-1-265h48c2 10 0 23 3 31 11-24 29-35 60-35zM114-30c33 0 39-31 40-66 0-38-9-64-40-64-56 0-55 130 0 130" id="bp"/><path fill="#a9afb8" d="M110-194c64 0 96 36 96 99 0 64-35 99-97 99-61 0-95-36-95-99 0-62 34-99 96-99zm-1 164c35 0 45-28 45-65 0-40-10-65-43-65-34 0-45 26-45 65 0 36 10 65 43 65" id="bq"/><path fill="#a9afb8" d="M137-138c1-29-70-34-71-4 15 46 118 7 119 86 1 83-164 76-172 9l43-7c4 19 20 25 44 25 33 8 57-30 24-41C81-84 22-81 20-136c-2-80 154-74 161-7" id="br"/><path fill="#a9afb8" d="M25-224v-37h50v37H25zM25 0v-190h50V0H25" id="bs"/><path fill="#a9afb8" d="M115-3C79 11 28 4 28-45v-112H4v-33h27l15-45h31v45h36v33H77v99c-1 23 16 31 38 25v30" id="bt"/><path fill="#a9afb8" d="M135-150c-39-12-60 13-60 57V0H25l-1-190h47c2 13-1 29 3 40 6-28 27-53 61-41v41" id="bu"/><path fill="#a9afb8" d="M123 10C108 53 80 86 19 72V37c35 8 53-11 59-39L3-190h52l48 148c12-52 28-100 44-148h51" id="bv"/><path fill="#a9afb8" d="M14-72v-43h91v43H14" id="bw"/><path fill="#a9afb8" d="M169-182c-1-43-94-46-97-3 18 66 151 10 154 114 3 95-165 93-204 36-6-8-10-19-12-30l50-8c3 46 112 56 116 5-17-69-150-10-154-114-4-87 153-88 188-35 5 8 8 18 10 28" id="bx"/><path fill="#a9afb8" d="M128 0H69L1-190h53L99-40l48-150h52" id="by"/><path fill="#a9afb8" d="M190-63c-7 42-38 67-86 67-59 0-84-38-90-98-12-110 154-137 174-36l-49 2c-2-19-15-32-35-32-30 0-35 28-38 64-6 74 65 87 74 30" id="bz"/><g id="j"><use transform="matrix(0.0728395061728395,0,0,0.0728395061728395,0,0)" xlink:href="#bn"/><use transform="matrix(0.0728395061728395,0,0,0.0728395061728395,18.86543209876543,0)" xlink:href="#bo"/><use transform="matrix(0.0728395061728395,0,0,0.0728395061728395,33.43333333333333,0)" xlink:href="#bp"/><use transform="matrix(0.0728395061728395,0,0,0.0728395061728395,49.38518518518518,0)" xlink:href="#bq"/><use transform="matrix(0.0728395061728395,0,0,0.0728395061728395,65.33703703703704,0)" xlink:href="#br"/><use transform="matrix(0.0728395061728395,0,0,0.0728395061728395,79.90493827160493,0)" xlink:href="#bs"/><use transform="matrix(0.0728395061728395,0,0,0.0728395061728395,87.18888888888888,0)" xlink:href="#bt"/><use transform="matrix(0.0728395061728395,0,0,0.0728395061728395,95.85679012345679,0)" xlink:href="#bq"/><use transform="matrix(0.0728395061728395,0,0,0.0728395061728395,111.80864197530865,0)" xlink:href="#bu"/><use transform="matrix(0.0728395061728395,0,0,0.0728395061728395,122.00617283950618,0)" xlink:href="#bv"/><use transform="matrix(0.0728395061728395,0,0,0.0728395061728395,136.57407407407408,0)" xlink:href="#bw"/><use transform="matrix(0.0728395061728395,0,0,0.0728395061728395,145.24197530864197,0)" xlink:href="#bx"/><use transform="matrix(0.0728395061728395,0,0,0.0728395061728395,162.72345679012346,0)" xlink:href="#bo"/><use transform="matrix(0.0728395061728395,0,0,0.0728395061728395,177.29135802469136,0)" xlink:href="#bu"/><use transform="matrix(0.0728395061728395,0,0,0.0728395061728395,187.48888888888888,0)" xlink:href="#by"/><use transform="matrix(0.0728395061728395,0,0,0.0728395061728395,202.05679012345678,0)" xlink:href="#bs"/><use transform="matrix(0.0728395061728395,0,0,0.0728395061728395,209.34074074074073,0)" xlink:href="#bz"/><use transform="matrix(0.0728395061728395,0,0,0.0728395061728395,223.90864197530863,0)" xlink:href="#bo"/></g><path fill="#a9afb8" d="M24-248c93 1 206-16 204 79-1 75-69 88-152 82V0H24v-248zm52 121c47 0 100 7 100-41 0-47-54-39-100-39v80" id="bA"/><path fill="#a9afb8" d="M133-34C117-15 103 5 69 4 32 3 11-16 11-54c-1-60 55-63 116-61 1-26-3-47-28-47-18 1-26 9-28 27l-52-2c7-38 36-58 82-57s74 22 75 68l1 82c-1 14 12 18 25 15v27c-30 8-71 5-69-32zm-48 3c29 0 43-24 42-57-32 0-66-3-65 30 0 17 8 27 23 27" id="bB"/><path fill="#a9afb8" d="M135-194c87-1 58 113 63 194h-50c-7-57 23-157-34-157-59 0-34 97-39 157H25l-1-190h47c2 12-1 28 3 38 12-26 28-41 61-42" id="bC"/><g id="k"><use transform="matrix(0.0728395061728395,0,0,0.0728395061728395,0,0)" xlink:href="#bA"/><use transform="matrix(0.0728395061728395,0,0,0.0728395061728395,17.48148148148148,0)" xlink:href="#bB"/><use transform="matrix(0.0728395061728395,0,0,0.0728395061728395,32.04938271604938,0)" xlink:href="#bt"/><use transform="matrix(0.0728395061728395,0,0,0.0728395061728395,40.717283950617286,0)" xlink:href="#bt"/><use transform="matrix(0.0728395061728395,0,0,0.0728395061728395,49.38518518518518,0)" xlink:href="#bo"/><use transform="matrix(0.0728395061728395,0,0,0.0728395061728395,63.95308641975308,0)" xlink:href="#bu"/><use transform="matrix(0.0728395061728395,0,0,0.0728395061728395,74.15061728395061,0)" xlink:href="#bC"/></g><path fill="#a9afb8" d="M233-177c-1 41-23 64-60 70L243 0h-38l-65-103H63V0H30v-248c88 3 205-21 203 71zM63-129c60-2 137 13 137-47 0-61-80-42-137-45v92" id="bD"/><path fill="#a9afb8" d="M179-190L93 31C79 59 56 82 12 73V49c39 6 53-20 64-50L1-190h34L92-34l54-156h33" id="bE"/><path fill="#a9afb8" d="M141-36C126-15 110 5 73 4 37 3 15-17 15-53c-1-64 63-63 125-63 3-35-9-54-41-54-24 1-41 7-42 31l-33-3c5-37 33-52 76-52 45 0 72 20 72 64v82c-1 20 7 32 28 27v20c-31 9-61-2-59-35zM48-53c0 20 12 33 32 33 41-3 63-29 60-74-43 2-92-5-92 41" id="bF"/><path fill="#a9afb8" d="M117-194c89-4 53 116 60 194h-32v-121c0-31-8-49-39-48C34-167 62-67 57 0H25l-1-190h30c1 10-1 24 2 32 11-22 29-35 61-36" id="bG"/><g id="l"><use transform="matrix(0.04248971193415638,0,0,0.04248971193415638,0,0)" xlink:href="#bD"/><use transform="matrix(0.04248971193415638,0,0,0.04248971193415638,11.004835390946502,0)" xlink:href="#bE"/><use transform="matrix(0.04248971193415638,0,0,0.04248971193415638,18.65298353909465,0)" xlink:href="#bF"/><use transform="matrix(0.04248971193415638,0,0,0.04248971193415638,27.150925925925925,0)" xlink:href="#bG"/></g><path fill="#a9afb8" d="M240 0l2-218c-23 76-54 145-80 218h-23L58-218 59 0H30v-248h44l77 211c21-75 51-140 76-211h43V0h-30" id="bH"/><path fill="#a9afb8" d="M96-169c-40 0-48 33-48 73s9 75 48 75c24 0 41-14 43-38l32 2c-6 37-31 61-74 61-59 0-76-41-82-99-10-93 101-131 147-64 4 7 5 14 7 22l-32 3c-4-21-16-35-41-35" id="bI"/><path fill="#a9afb8" d="M143 0L79-87 56-68V0H24v-261h32v163l83-92h37l-77 82L181 0h-38" id="bJ"/><path fill="#a9afb8" d="M100-194c63 0 86 42 84 106H49c0 40 14 67 53 68 26 1 43-12 49-29l28 8c-11 28-37 45-77 45C44 4 14-33 15-96c1-61 26-98 85-98zm52 81c6-60-76-77-97-28-3 7-6 17-6 28h103" id="bK"/><g id="m"><use transform="matrix(0.04248971193415638,0,0,0.04248971193415638,0,0)" xlink:href="#bH"/><use transform="matrix(0.04248971193415638,0,0,0.04248971193415638,12.704423868312757,0)" xlink:href="#bI"/><use transform="matrix(0.04248971193415638,0,0,0.04248971193415638,20.352572016460904,0)" xlink:href="#bJ"/><use transform="matrix(0.04248971193415638,0,0,0.04248971193415638,28.000720164609053,0)" xlink:href="#bK"/><use transform="matrix(0.04248971193415638,0,0,0.04248971193415638,36.498662551440326,0)" xlink:href="#bG"/><use transform="matrix(0.04248971193415638,0,0,0.04248971193415638,44.9966049382716,0)" xlink:href="#bG"/><use transform="matrix(0.04248971193415638,0,0,0.04248971193415638,53.49454732510288,0)" xlink:href="#bF"/></g><path fill="#a9afb8" d="M32 76v-337h29V76H32" id="bL"/><use transform="matrix(0.04248971193415638,0,0,0.04248971193415638,0,0)" xlink:href="#bL" id="n"/><path fill="#a9afb8" d="M153-248C145-148 188 4 80 4 36 3 13-21 6-62l32-5c4 25 16 42 43 43 27 0 39-20 39-49v-147H72v-28h81" id="bM"/><path fill="#a9afb8" d="M84 4C-5 8 30-112 23-190h32v120c0 31 7 50 39 49 72-2 45-101 50-169h31l1 190h-30c-1-10 1-25-2-33-11 22-28 36-60 37" id="bN"/><path fill="#a9afb8" d="M24 0v-261h32V0H24" id="bO"/><g id="o"><use transform="matrix(0.04248971193415638,0,0,0.04248971193415638,0,0)" xlink:href="#bM"/><use transform="matrix(0.04248971193415638,0,0,0.04248971193415638,7.648148148148148,0)" xlink:href="#bN"/><use transform="matrix(0.04248971193415638,0,0,0.04248971193415638,16.14609053497942,0)" xlink:href="#bO"/><use transform="matrix(0.04248971193415638,0,0,0.04248971193415638,19.502777777777776,0)" xlink:href="#bE"/></g><path fill="#a9afb8" d="M101-251c82-7 93 87 43 132L82-64C71-53 59-42 53-27h129V0H18c2-99 128-94 128-182 0-28-16-43-45-43s-46 15-49 41l-32-3c6-41 34-60 81-64" id="bP"/><path fill="#a9afb8" d="M27 0v-27h64v-190l-56 39v-29l58-41h29v221h61V0H27" id="bQ"/><path fill="#a9afb8" d="M68-38c1 34 0 65-14 84H32c9-13 17-26 17-46H33v-38h35" id="bR"/><g id="p"><use transform="matrix(0.04248971193415638,0,0,0.04248971193415638,0,0)" xlink:href="#bP"/><use transform="matrix(0.04248971193415638,0,0,0.04248971193415638,8.497942386831275,0)" xlink:href="#bQ"/><use transform="matrix(0.04248971193415638,0,0,0.04248971193415638,16.99588477366255,0)" xlink:href="#bR"/></g><path fill="#a9afb8" d="M101-251c68 0 85 55 85 127S166 4 100 4C33 4 14-52 14-124c0-73 17-127 87-127zm-1 229c47 0 54-49 54-102s-4-102-53-102c-51 0-55 48-55 102 0 53 5 102 54 102" id="bS"/><g id="q"><use transform="matrix(0.04248971193415638,0,0,0.04248971193415638,0,0)" xlink:href="#bP"/><use transform="matrix(0.04248971193415638,0,0,0.04248971193415638,8.497942386831275,0)" xlink:href="#bS"/><use transform="matrix(0.04248971193415638,0,0,0.04248971193415638,16.99588477366255,0)" xlink:href="#bP"/><use transform="matrix(0.04248971193415638,0,0,0.04248971193415638,25.493827160493822,0)" xlink:href="#bQ"/></g><path fill="#333" d="M240-174c0 40-23 61-54 70L253 0h-59l-57-94H76V0H24v-248c93 4 217-23 216 74zM76-134c48-2 112 12 112-38 0-48-66-32-112-35v73" id="bT"/><path fill="#333" d="M135-194c53 0 70 44 70 98 0 56-19 98-73 100-31 1-45-17-59-34 3 33 2 69 2 105H25l-1-265h48c2 10 0 23 3 31 11-24 29-35 60-35zM114-30c33 0 39-31 40-66 0-38-9-64-40-64-56 0-55 130 0 130" id="bU"/><path fill="#333" d="M110-194c64 0 96 36 96 99 0 64-35 99-97 99-61 0-95-36-95-99 0-62 34-99 96-99zm-1 164c35 0 45-28 45-65 0-40-10-65-43-65-34 0-45 26-45 65 0 36 10 65 43 65" id="bV"/><path fill="#333" d="M137-138c1-29-70-34-71-4 15 46 118 7 119 86 1 83-164 76-172 9l43-7c4 19 20 25 44 25 33 8 57-30 24-41C81-84 22-81 20-136c-2-80 154-74 161-7" id="bW"/><path fill="#333" d="M123 10C108 53 80 86 19 72V37c35 8 53-11 59-39L3-190h52l48 148c12-52 28-100 44-148h51" id="bX"/><g id="r"><use transform="matrix(0.05,0,0,0.05,0,0)" xlink:href="#bT"/><use transform="matrix(0.05,0,0,0.05,12.950000000000001,0)" xlink:href="#aL"/><use transform="matrix(0.05,0,0,0.05,22.950000000000003,0)" xlink:href="#bU"/><use transform="matrix(0.05,0,0,0.05,33.900000000000006,0)" xlink:href="#bV"/><use transform="matrix(0.05,0,0,0.05,44.85000000000001,0)" xlink:href="#bW"/><use transform="matrix(0.05,0,0,0.05,54.85,0)" xlink:href="#aO"/><use transform="matrix(0.05,0,0,0.05,59.85,0)" xlink:href="#aS"/><use transform="matrix(0.05,0,0,0.05,65.80000000000001,0)" xlink:href="#bV"/><use transform="matrix(0.05,0,0,0.05,76.75000000000001,0)" xlink:href="#aM"/><use transform="matrix(0.05,0,0,0.05,83.75000000000001,0)" xlink:href="#bX"/></g><path fill="#333" d="M140-251c80 0 125 45 125 126S219 4 139 4C58 4 15-44 15-125s44-126 125-126zm-1 214c52 0 73-35 73-88 0-50-21-86-72-86-52 0-73 35-73 86s22 88 72 88" id="bY"/><g id="s"><use transform="matrix(0.05,0,0,0.05,0,0)" xlink:href="#bY"/><use transform="matrix(0.05,0,0,0.05,14,0)" xlink:href="#aR"/><use transform="matrix(0.05,0,0,0.05,24.950000000000003,0)" xlink:href="#aL"/></g><path fill="#333" d="M118-107v75H92v-75H18v-26h74v-75h26v75h74v26h-74" id="bZ"/><g id="t"><use transform="matrix(0.05,0,0,0.05,0,0)" xlink:href="#bZ"/><use transform="matrix(0.05,0,0,0.05,10.5,0)" xlink:href="#aV"/><use transform="matrix(0.05,0,0,0.05,20.5,0)" xlink:href="#aE"/><use transform="matrix(0.05,0,0,0.05,30.5,0)" xlink:href="#aD"/><use transform="matrix(0.05,0,0,0.05,35.5,0)" xlink:href="#aW"/><use transform="matrix(0.05,0,0,0.05,40.5,0)" xlink:href="#aD"/><use transform="matrix(0.05,0,0,0.05,45.5,0)" xlink:href="#aE"/><use transform="matrix(0.05,0,0,0.05,55.5,0)" xlink:href="#aX"/><use transform="matrix(0.05,0,0,0.05,70.45,0)" xlink:href="#aY"/><use transform="matrix(0.05,0,0,0.05,79.45,0)" xlink:href="#aZ"/><use transform="matrix(0.05,0,0,0.05,85.4,0)" xlink:href="#ba"/><use transform="matrix(0.05,0,0,0.05,91.35000000000001,0)" xlink:href="#bb"/></g><g id="u"><use transform="matrix(0.05,0,0,0.05,0,0)" xlink:href="#bc"/><use transform="matrix(0.05,0,0,0.05,12,0)" xlink:href="#aF"/><use transform="matrix(0.05,0,0,0.05,17.95,0)" xlink:href="#aF"/><use transform="matrix(0.05,0,0,0.05,23.9,0)" xlink:href="#aH"/><use transform="matrix(0.05,0,0,0.05,33.9,0)" xlink:href="#bd"/><use transform="matrix(0.05,0,0,0.05,42.9,0)" xlink:href="#be"/><use transform="matrix(0.05,0,0,0.05,52.900000000000006,0)" xlink:href="#aB"/><use transform="matrix(0.05,0,0,0.05,56.85,0)" xlink:href="#aY"/><use transform="matrix(0.05,0,0,0.05,65.85,0)" xlink:href="#aD"/><use transform="matrix(0.05,0,0,0.05,70.85,0)" xlink:href="#bf"/><use transform="matrix(0.05,0,0,0.05,81.35,0)" xlink:href="#aW"/><use transform="matrix(0.05,0,0,0.05,86.35,0)" xlink:href="#aD"/><use transform="matrix(0.05,0,0,0.05,91.35,0)" xlink:href="#aE"/><use transform="matrix(0.05,0,0,0.05,101.35,0)" xlink:href="#aX"/><use transform="matrix(0.05,0,0,0.05,116.30000000000001,0)" xlink:href="#bg"/><use transform="matrix(0.05,0,0,0.05,130.3,0)" xlink:href="#aC"/><use transform="matrix(0.05,0,0,0.05,140.3,0)" xlink:href="#aE"/><use transform="matrix(0.05,0,0,0.05,150.3,0)" xlink:href="#bl"/></g><g id="v"><use transform="matrix(0.05,0,0,0.05,0,0)" xlink:href="#bZ"/><use transform="matrix(0.05,0,0,0.05,10.5,0)" xlink:href="#aV"/><use transform="matrix(0.05,0,0,0.05,20.5,0)" xlink:href="#aE"/><use transform="matrix(0.05,0,0,0.05,30.5,0)" xlink:href="#aD"/><use transform="matrix(0.05,0,0,0.05,35.5,0)" xlink:href="#aW"/><use transform="matrix(0.05,0,0,0.05,40.5,0)" xlink:href="#aD"/><use transform="matrix(0.05,0,0,0.05,45.5,0)" xlink:href="#aE"/><use transform="matrix(0.05,0,0,0.05,55.5,0)" xlink:href="#aX"/><use transform="matrix(0.05,0,0,0.05,70.45,0)" xlink:href="#aZ"/><use transform="matrix(0.05,0,0,0.05,76.4,0)" xlink:href="#aW"/><use transform="matrix(0.05,0,0,0.05,81.4,0)" xlink:href="#bm"/><use transform="matrix(0.05,0,0,0.05,94.35000000000001,0)" xlink:href="#bb"/></g><g id="w"><use transform="matrix(0.05,0,0,0.05,0,0)" xlink:href="#aB"/><use transform="matrix(0.05,0,0,0.05,3.95,0)" xlink:href="#aC"/><use transform="matrix(0.05,0,0,0.05,13.949999999999998,0)" xlink:href="#aD"/><use transform="matrix(0.05,0,0,0.05,18.95,0)" xlink:href="#ba"/></g><g id="x"><use transform="matrix(0.05,0,0,0.05,0,0)" xlink:href="#aW"/><use transform="matrix(0.05,0,0,0.05,5,0)" xlink:href="#aD"/><use transform="matrix(0.05,0,0,0.05,10,0)" xlink:href="#aE"/><use transform="matrix(0.05,0,0,0.05,20,0)" xlink:href="#aX"/><use transform="matrix(0.05,0,0,0.05,34.95,0)" xlink:href="#bg"/><use transform="matrix(0.05,0,0,0.05,48.95,0)" xlink:href="#aC"/><use transform="matrix(0.05,0,0,0.05,58.95,0)" xlink:href="#aE"/></g><path fill="#333" d="M136-208V0H84v-208H4v-40h212v40h-80" id="ca"/><path fill="#333" d="M231 0h-52l-39-155L100 0H48L-1-190h46L77-45c9-52 24-97 36-145h53l37 145 32-145h46" id="cb"/><g id="y"><use transform="matrix(0.05,0,0,0.05,0,0)" xlink:href="#ca"/><use transform="matrix(0.05,0,0,0.05,9.600000000000001,0)" xlink:href="#cb"/><use transform="matrix(0.05,0,0,0.05,23.6,0)" xlink:href="#bV"/></g><g id="z"><use transform="matrix(0.05,0,0,0.05,0,0)" xlink:href="#bc"/><use transform="matrix(0.05,0,0,0.05,12,0)" xlink:href="#aF"/><use transform="matrix(0.05,0,0,0.05,17.95,0)" xlink:href="#aF"/><use transform="matrix(0.05,0,0,0.05,23.9,0)" xlink:href="#aH"/><use transform="matrix(0.05,0,0,0.05,33.9,0)" xlink:href="#bd"/><use transform="matrix(0.05,0,0,0.05,42.9,0)" xlink:href="#be"/><use transform="matrix(0.05,0,0,0.05,52.900000000000006,0)" xlink:href="#aB"/><use transform="matrix(0.05,0,0,0.05,56.85,0)" xlink:href="#aY"/><use transform="matrix(0.05,0,0,0.05,65.85,0)" xlink:href="#aD"/><use transform="matrix(0.05,0,0,0.05,70.85,0)" xlink:href="#bf"/><use transform="matrix(0.05,0,0,0.05,81.35,0)" xlink:href="#aW"/><use transform="matrix(0.05,0,0,0.05,86.35,0)" xlink:href="#aD"/><use transform="matrix(0.05,0,0,0.05,91.35,0)" xlink:href="#aE"/><use transform="matrix(0.05,0,0,0.05,101.35,0)" xlink:href="#aX"/><use transform="matrix(0.05,0,0,0.05,116.30000000000001,0)" xlink:href="#bh"/><use transform="matrix(0.05,0,0,0.05,126.25,0)" xlink:href="#bi"/><use transform="matrix(0.05,0,0,0.05,139.2,0)" xlink:href="#bj"/><use transform="matrix(0.05,0,0,0.05,149.2,0)" xlink:href="#bl"/></g><g id="A"><use transform="matrix(0.05,0,0,0.05,0,0)" xlink:href="#aW"/><use transform="matrix(0.05,0,0,0.05,5,0)" xlink:href="#aD"/><use transform="matrix(0.05,0,0,0.05,10,0)" xlink:href="#aE"/><use transform="matrix(0.05,0,0,0.05,20,0)" xlink:href="#aX"/><use transform="matrix(0.05,0,0,0.05,34.95,0)" xlink:href="#bh"/><use transform="matrix(0.05,0,0,0.05,44.900000000000006,0)" xlink:href="#bi"/><use transform="matrix(0.05,0,0,0.05,57.85,0)" xlink:href="#bj"/></g><path fill="#333" d="M114-157C55-157 80-60 75 0H25v-261h50l-1 109c12-26 28-41 61-42 86-1 58 113 63 194h-50c-7-57 23-157-34-157" id="cc"/><g id="B"><use transform="matrix(0.05,0,0,0.05,0,0)" xlink:href="#ca"/><use transform="matrix(0.05,0,0,0.05,10.950000000000001,0)" xlink:href="#cc"/><use transform="matrix(0.05,0,0,0.05,21.900000000000002,0)" xlink:href="#aM"/><use transform="matrix(0.05,0,0,0.05,28.900000000000002,0)" xlink:href="#aL"/><use transform="matrix(0.05,0,0,0.05,38.900000000000006,0)" xlink:href="#aL"/></g><g id="C"><use transform="matrix(0.05,0,0,0.05,0,0)" xlink:href="#bc"/><use transform="matrix(0.05,0,0,0.05,12,0)" xlink:href="#aF"/><use transform="matrix(0.05,0,0,0.05,17.95,0)" xlink:href="#aF"/><use transform="matrix(0.05,0,0,0.05,23.9,0)" xlink:href="#aH"/><use transform="matrix(0.05,0,0,0.05,33.9,0)" xlink:href="#bd"/><use transform="matrix(0.05,0,0,0.05,42.9,0)" xlink:href="#be"/><use transform="matrix(0.05,0,0,0.05,52.900000000000006,0)" xlink:href="#aB"/><use transform="matrix(0.05,0,0,0.05,56.85,0)" xlink:href="#aY"/><use transform="matrix(0.05,0,0,0.05,65.85,0)" xlink:href="#aD"/><use transform="matrix(0.05,0,0,0.05,70.85,0)" xlink:href="#bf"/><use transform="matrix(0.05,0,0,0.05,81.35,0)" xlink:href="#aW"/><use transform="matrix(0.05,0,0,0.05,86.35,0)" xlink:href="#aD"/><use transform="matrix(0.05,0,0,0.05,91.35,0)" xlink:href="#aE"/><use transform="matrix(0.05,0,0,0.05,101.35,0)" xlink:href="#aX"/><use transform="matrix(0.05,0,0,0.05,116.30000000000001,0)" xlink:href="#bh"/><use transform="matrix(0.05,0,0,0.05,127.25,0)" xlink:href="#bk"/><use transform="matrix(0.05,0,0,0.05,137.25,0)" xlink:href="#aF"/><use transform="matrix(0.05,0,0,0.05,143.2,0)" xlink:href="#aE"/><use transform="matrix(0.05,0,0,0.05,153.2,0)" xlink:href="#aE"/><use transform="matrix(0.05,0,0,0.05,163.2,0)" xlink:href="#bl"/></g><g id="D"><use transform="matrix(0.05,0,0,0.05,0,0)" xlink:href="#aW"/><use transform="matrix(0.05,0,0,0.05,5,0)" xlink:href="#aD"/><use transform="matrix(0.05,0,0,0.05,10,0)" xlink:href="#aE"/><use transform="matrix(0.05,0,0,0.05,20,0)" xlink:href="#aX"/><use transform="matrix(0.05,0,0,0.05,34.95,0)" xlink:href="#bh"/><use transform="matrix(0.05,0,0,0.05,45.900000000000006,0)" xlink:href="#bk"/><use transform="matrix(0.05,0,0,0.05,55.900000000000006,0)" xlink:href="#aF"/><use transform="matrix(0.05,0,0,0.05,61.85,0)" xlink:href="#aE"/><use transform="matrix(0.05,0,0,0.05,71.85000000000001,0)" xlink:href="#aE"/></g><g id="E"><use transform="matrix(0.05,0,0,0.05,0,0)" xlink:href="#bT"/><use transform="matrix(0.05,0,0,0.05,12.950000000000001,0)" xlink:href="#aL"/><use transform="matrix(0.05,0,0,0.05,22.950000000000003,0)" xlink:href="#bU"/><use transform="matrix(0.05,0,0,0.05,33.900000000000006,0)" xlink:href="#bV"/><use transform="matrix(0.05,0,0,0.05,44.85000000000001,0)" xlink:href="#bW"/><use transform="matrix(0.05,0,0,0.05,54.85,0)" xlink:href="#aO"/><use transform="matrix(0.05,0,0,0.05,59.85,0)" xlink:href="#aS"/><use transform="matrix(0.05,0,0,0.05,65.80000000000001,0)" xlink:href="#bV"/><use transform="matrix(0.05,0,0,0.05,76.75000000000001,0)" xlink:href="#aM"/><use transform="matrix(0.05,0,0,0.05,83.75000000000001,0)" xlink:href="#bX"/></g><g id="F"><use transform="matrix(0.05,0,0,0.05,0,0)" xlink:href="#bY"/><use transform="matrix(0.05,0,0,0.05,14,0)" xlink:href="#aR"/><use transform="matrix(0.05,0,0,0.05,24.950000000000003,0)" xlink:href="#aL"/></g><g id="G"><use transform="matrix(0.05,0,0,0.05,0,0)" xlink:href="#aQ"/><use transform="matrix(0.05,0,0,0.05,5,0)" xlink:href="#aR"/><use transform="matrix(0.05,0,0,0.05,15.950000000000001,0)" xlink:href="#aS"/><use transform="matrix(0.05,0,0,0.05,21.900000000000002,0)" xlink:href="#aL"/><use transform="matrix(0.05,0,0,0.05,31.900000000000002,0)" xlink:href="#aM"/><use transform="matrix(0.05,0,0,0.05,38.900000000000006,0)" xlink:href="#aT"/><use transform="matrix(0.05,0,0,0.05,44.85000000000001,0)" xlink:href="#aU"/><use transform="matrix(0.05,0,0,0.05,54.85,0)" xlink:href="#aP"/><use transform="matrix(0.05,0,0,0.05,64.85000000000001,0)" xlink:href="#aL"/></g><g id="H"><use transform="matrix(0.05,0,0,0.05,0,0)" xlink:href="#ca"/><use transform="matrix(0.05,0,0,0.05,9.600000000000001,0)" xlink:href="#cb"/><use transform="matrix(0.05,0,0,0.05,23.6,0)" xlink:href="#bV"/></g><g id="I"><use transform="matrix(0.05,0,0,0.05,0,0)" xlink:href="#ca"/><use transform="matrix(0.05,0,0,0.05,10.950000000000001,0)" xlink:href="#cc"/><use transform="matrix(0.05,0,0,0.05,21.900000000000002,0)" xlink:href="#aM"/><use transform="matrix(0.05,0,0,0.05,28.900000000000002,0)" xlink:href="#aL"/><use transform="matrix(0.05,0,0,0.05,38.900000000000006,0)" xlink:href="#aL"/></g><path fill="#333" d="M220-157c-53 9-28 100-34 157h-49v-107c1-27-5-49-29-50C55-147 81-57 75 0H25l-1-190h47c2 12-1 28 3 38 10-53 101-56 108 0 13-22 24-43 59-42 82 1 51 116 57 194h-49v-107c-1-25-5-48-29-50" id="cd"/><g id="J"><use transform="matrix(0.05,0,0,0.05,0,0)" xlink:href="#aQ"/><use transform="matrix(0.05,0,0,0.05,5,0)" xlink:href="#aS"/><use transform="matrix(0.05,0,0,0.05,10.95,0)" xlink:href="#aL"/><use transform="matrix(0.05,0,0,0.05,20.95,0)" xlink:href="#cd"/><use transform="matrix(0.05,0,0,0.05,36.95,0)" xlink:href="#bY"/><use transform="matrix(0.05,0,0,0.05,50.95,0)" xlink:href="#aR"/><use transform="matrix(0.05,0,0,0.05,61.900000000000006,0)" xlink:href="#aL"/></g><path fill="#333" d="M115-194c53 0 69 39 70 98 0 66-23 100-70 100C84 3 66-7 56-30L54 0H23l1-261h32v101c10-23 28-34 59-34zm-8 174c40 0 45-34 45-75 0-40-5-75-45-74-42 0-51 32-51 76 0 43 10 73 51 73" id="ce"/><path fill="#333" d="M84 4C-5 8 30-112 23-190h32v120c0 31 7 50 39 49 72-2 45-101 50-169h31l1 190h-30c-1-10 1-25-2-33-11 22-28 36-60 37" id="cf"/><g id="K"><use transform="matrix(0.05,0,0,0.05,0,0)" xlink:href="#bZ"/><use transform="matrix(0.05,0,0,0.05,10.5,0)" xlink:href="#aH"/><use transform="matrix(0.05,0,0,0.05,20.5,0)" xlink:href="#aD"/><use transform="matrix(0.05,0,0,0.05,25.5,0)" xlink:href="#aD"/><use transform="matrix(0.05,0,0,0.05,30.5,0)" xlink:href="#aF"/><use transform="matrix(0.05,0,0,0.05,36.45,0)" xlink:href="#aB"/><use transform="matrix(0.05,0,0,0.05,40.400000000000006,0)" xlink:href="#ce"/><use transform="matrix(0.05,0,0,0.05,50.400000000000006,0)" xlink:href="#cf"/><use transform="matrix(0.05,0,0,0.05,60.400000000000006,0)" xlink:href="#aD"/><use transform="matrix(0.05,0,0,0.05,65.4,0)" xlink:href="#aE"/><use transform="matrix(0.05,0,0,0.05,75.4,0)" xlink:href="#bg"/><use transform="matrix(0.05,0,0,0.05,89.4,0)" xlink:href="#aC"/><use transform="matrix(0.05,0,0,0.05,99.4,0)" xlink:href="#aE"/><use transform="matrix(0.05,0,0,0.05,109.4,0)" xlink:href="#bb"/></g><path fill="#333" d="M190 0L58-211 59 0H30v-248h39L202-35l-2-213h31V0h-41" id="cg"/><path fill="#333" d="M30 0v-248h187v28H63v79h144v27H63v87h162V0H30" id="ch"/><path fill="#333" d="M143 4C61 4 22-44 18-125c-5-107 100-154 193-111 17 8 29 25 37 43l-32 9c-13-25-37-40-76-40-61 0-88 39-88 99 0 61 29 100 91 101 35 0 62-11 79-27v-45h-74v-28h105v86C228-13 192 4 143 4" id="ci"/><path fill="#333" d="M233-177c-1 41-23 64-60 70L243 0h-38l-65-103H63V0H30v-248c88 3 205-21 203 71zM63-129c60-2 137 13 137-47 0-61-80-42-137-45v92" id="cj"/><g id="L"><use transform="matrix(0.05,0,0,0.05,0,0)" xlink:href="#aW"/><use transform="matrix(0.05,0,0,0.05,5,0)" xlink:href="#cg"/><use transform="matrix(0.05,0,0,0.05,17.950000000000003,0)" xlink:href="#bh"/><use transform="matrix(0.05,0,0,0.05,28.900000000000006,0)" xlink:href="#ch"/><use transform="matrix(0.05,0,0,0.05,40.900000000000006,0)" xlink:href="#ci"/><use transform="matrix(0.05,0,0,0.05,54.900000000000006,0)" xlink:href="#ch"/><use transform="matrix(0.05,0,0,0.05,66.9,0)" xlink:href="#cj"/></g><g id="M"><use transform="matrix(0.05,0,0,0.05,0,0)" xlink:href="#aA"/><use transform="matrix(0.05,0,0,0.05,10,0)" xlink:href="#aB"/><use transform="matrix(0.05,0,0,0.05,13.949999999999998,0)" xlink:href="#aC"/><use transform="matrix(0.05,0,0,0.05,23.95,0)" xlink:href="#aD"/><use transform="matrix(0.05,0,0,0.05,28.950000000000003,0)" xlink:href="#aE"/><use transform="matrix(0.05,0,0,0.05,38.95,0)" xlink:href="#aF"/><use transform="matrix(0.05,0,0,0.05,44.900000000000006,0)" xlink:href="#aG"/><use transform="matrix(0.05,0,0,0.05,49.900000000000006,0)" xlink:href="#aH"/><use transform="matrix(0.05,0,0,0.05,59.900000000000006,0)" xlink:href="#aI"/><use transform="matrix(0.05,0,0,0.05,68.9,0)" xlink:href="#aE"/><use transform="matrix(0.05,0,0,0.05,78.9,0)" xlink:href="#aJ"/></g><g id="N"><use transform="matrix(0.05,0,0,0.05,0,0)" xlink:href="#aQ"/><use transform="matrix(0.05,0,0,0.05,5,0)" xlink:href="#aS"/><use transform="matrix(0.05,0,0,0.05,10.95,0)" xlink:href="#aL"/><use transform="matrix(0.05,0,0,0.05,20.95,0)" xlink:href="#cd"/><use transform="matrix(0.05,0,0,0.05,36.95,0)" xlink:href="#bY"/><use transform="matrix(0.05,0,0,0.05,50.95,0)" xlink:href="#aR"/><use transform="matrix(0.05,0,0,0.05,61.900000000000006,0)" xlink:href="#aL"/></g><g id="O"><use transform="matrix(0.05,0,0,0.05,0,0)" xlink:href="#aQ"/><use transform="matrix(0.05,0,0,0.05,5,0)" xlink:href="#aR"/><use transform="matrix(0.05,0,0,0.05,15.950000000000001,0)" xlink:href="#aS"/><use transform="matrix(0.05,0,0,0.05,21.900000000000002,0)" xlink:href="#aL"/><use transform="matrix(0.05,0,0,0.05,31.900000000000002,0)" xlink:href="#aM"/><use transform="matrix(0.05,0,0,0.05,38.900000000000006,0)" xlink:href="#aT"/><use transform="matrix(0.05,0,0,0.05,44.85000000000001,0)" xlink:href="#aU"/><use transform="matrix(0.05,0,0,0.05,54.85,0)" xlink:href="#aP"/><use transform="matrix(0.05,0,0,0.05,64.85000000000001,0)" xlink:href="#aL"/></g><g id="P"><use transform="matrix(0.05,0,0,0.05,0,0)" xlink:href="#aW"/><use transform="matrix(0.05,0,0,0.05,5,0)" xlink:href="#cg"/><use transform="matrix(0.05,0,0,0.05,17.950000000000003,0)" xlink:href="#bh"/><use transform="matrix(0.05,0,0,0.05,28.900000000000006,0)" xlink:href="#ch"/><use transform="matrix(0.05,0,0,0.05,40.900000000000006,0)" xlink:href="#ci"/><use transform="matrix(0.05,0,0,0.05,54.900000000000006,0)" xlink:href="#ch"/><use transform="matrix(0.05,0,0,0.05,66.9,0)" xlink:href="#ch"/><use transform="matrix(0.05,0,0,0.05,78.9,0)" xlink:href="#cj"/></g><path fill="#333" d="M212-179c-10-28-35-45-73-45-59 0-87 40-87 99 0 60 29 101 89 101 43 0 62-24 78-52l27 14C228-24 195 4 139 4 59 4 22-46 18-125c-6-104 99-153 187-111 19 9 31 26 39 46" id="ck"/><path fill="#333" d="M24 0v-261h32V0H24" id="cl"/><g id="S"><use transform="matrix(0.05,0,0,0.05,0,0)" xlink:href="#ck"/><use transform="matrix(0.05,0,0,0.05,12.950000000000001,0)" xlink:href="#cl"/><use transform="matrix(0.05,0,0,0.05,16.900000000000002,0)" xlink:href="#aH"/><use transform="matrix(0.05,0,0,0.05,26.900000000000002,0)" xlink:href="#aY"/><use transform="matrix(0.05,0,0,0.05,35.900000000000006,0)" xlink:href="#aY"/></g><path fill="#333" d="M115-194c55 1 70 41 70 98S169 2 115 4C84 4 66-9 55-30l1 105H24l-1-265h31l2 30c10-21 28-34 59-34zm-8 174c40 0 45-34 45-75s-6-73-45-74c-42 0-51 32-51 76 0 43 10 73 51 73" id="cm"/><g id="T"><use transform="matrix(0.05,0,0,0.05,0,0)" xlink:href="#aW"/><use transform="matrix(0.05,0,0,0.05,5,0)" xlink:href="#aX"/><use transform="matrix(0.05,0,0,0.05,19.950000000000003,0)" xlink:href="#cm"/><use transform="matrix(0.05,0,0,0.05,29.950000000000003,0)" xlink:href="#cl"/><use transform="matrix(0.05,0,0,0.05,33.900000000000006,0)" xlink:href="#aE"/><use transform="matrix(0.05,0,0,0.05,43.900000000000006,0)" xlink:href="#aX"/><use transform="matrix(0.05,0,0,0.05,58.85,0)" xlink:href="#aE"/><use transform="matrix(0.05,0,0,0.05,68.85000000000001,0)" xlink:href="#aC"/><use transform="matrix(0.05,0,0,0.05,78.85000000000001,0)" xlink:href="#aD"/><use transform="matrix(0.05,0,0,0.05,83.85000000000001,0)" xlink:href="#aY"/></g><g id="U"><use transform="matrix(0.05,0,0,0.05,0,0)" xlink:href="#aW"/><use transform="matrix(0.05,0,0,0.05,5,0)" xlink:href="#aC"/><use transform="matrix(0.05,0,0,0.05,15,0)" xlink:href="#aD"/><use transform="matrix(0.05,0,0,0.05,20,0)" xlink:href="#aE"/><use transform="matrix(0.05,0,0,0.05,30,0)" xlink:href="#aF"/><use transform="matrix(0.05,0,0,0.05,35.95,0)" xlink:href="#aG"/><use transform="matrix(0.05,0,0,0.05,40.95,0)" xlink:href="#aH"/><use transform="matrix(0.05,0,0,0.05,50.95,0)" xlink:href="#aI"/><use transform="matrix(0.05,0,0,0.05,59.95,0)" xlink:href="#aE"/></g><path fill="#333" d="M85-194c31 0 48 13 60 33l-1-100h32l1 261h-30c-2-10 0-23-3-31C134-8 116 4 85 4 32 4 16-35 15-94c0-66 23-100 70-100zm9 24c-40 0-46 34-46 75 0 40 6 74 45 74 42 0 51-32 51-76 0-42-9-74-50-73" id="cn"/><g id="X"><use transform="matrix(0.05,0,0,0.05,0,0)" xlink:href="#ck"/><use transform="matrix(0.05,0,0,0.05,12.950000000000001,0)" xlink:href="#bk"/><use transform="matrix(0.05,0,0,0.05,22.950000000000003,0)" xlink:href="#aB"/><use transform="matrix(0.05,0,0,0.05,26.900000000000002,0)" xlink:href="#cl"/><use transform="matrix(0.05,0,0,0.05,30.85,0)" xlink:href="#cn"/></g><g id="Y"><use transform="matrix(0.05,0,0,0.05,0,0)" xlink:href="#aI"/><use transform="matrix(0.05,0,0,0.05,9,0)" xlink:href="#bj"/><use transform="matrix(0.05,0,0,0.05,19,0)" xlink:href="#aX"/><use transform="matrix(0.05,0,0,0.05,33.95,0)" xlink:href="#cm"/><use transform="matrix(0.05,0,0,0.05,43.95,0)" xlink:href="#bj"/><use transform="matrix(0.05,0,0,0.05,53.95,0)" xlink:href="#aY"/><use transform="matrix(0.05,0,0,0.05,62.95,0)" xlink:href="#aE"/></g><g id="Z"><use transform="matrix(0.05,0,0,0.05,0,0)" xlink:href="#cm"/><use transform="matrix(0.05,0,0,0.05,10,0)" xlink:href="#aH"/><use transform="matrix(0.05,0,0,0.05,20,0)" xlink:href="#aF"/><use transform="matrix(0.05,0,0,0.05,25.950000000000003,0)" xlink:href="#aE"/><use transform="matrix(0.05,0,0,0.05,35.95,0)" xlink:href="#aC"/><use transform="matrix(0.05,0,0,0.05,45.95,0)" xlink:href="#aD"/></g><path fill="#333" d="M175 0L67-191c6 58 2 128 3 191H24v-248h59L193-55c-6-58-2-129-3-193h46V0h-61" id="co"/><g id="ab"><use transform="matrix(0.05,0,0,0.05,0,0)" xlink:href="#co"/><use transform="matrix(0.05,0,0,0.05,12.950000000000001,0)" xlink:href="#bV"/><use transform="matrix(0.05,0,0,0.05,23.900000000000002,0)" xlink:href="#aS"/><use transform="matrix(0.05,0,0,0.05,29.85,0)" xlink:href="#aU"/><use transform="matrix(0.05,0,0,0.05,39.85,0)" xlink:href="#aS"/><use transform="matrix(0.05,0,0,0.05,45.800000000000004,0)" xlink:href="#aO"/><use transform="matrix(0.05,0,0,0.05,50.800000000000004,0)" xlink:href="#bV"/><use transform="matrix(0.05,0,0,0.05,61.75,0)" xlink:href="#aR"/></g><path fill="#333" d="M35-132v-50h50v50H35zM35 0v-49h50V0H35" id="cp"/><use transform="matrix(0.05,0,0,0.05,0,0)" xlink:href="#cp" id="ac"/><path fill="#333" d="M24 0v-248h52v208h133V0H24" id="cq"/><g id="ad"><use transform="matrix(0.05,0,0,0.05,0,0)" xlink:href="#cq"/><use transform="matrix(0.05,0,0,0.05,10.950000000000001,0)" xlink:href="#aL"/><use transform="matrix(0.05,0,0,0.05,20.950000000000003,0)" xlink:href="#aT"/><use transform="matrix(0.05,0,0,0.05,26.900000000000002,0)" xlink:href="#aS"/></g><path fill="#333" d="M135-194c52 0 70 43 70 98 0 56-19 99-73 100-30 1-46-15-58-35L72 0H24l1-261h50v104c11-23 29-37 60-37zM114-30c31 0 40-27 40-66 0-37-7-63-39-63s-41 28-41 65c0 36 8 64 40 64" id="cr"/><g id="ae"><use transform="matrix(0.05,0,0,0.05,0,0)" xlink:href="#aN"/><use transform="matrix(0.05,0,0,0.05,10,0)" xlink:href="#aL"/><use transform="matrix(0.05,0,0,0.05,20,0)" xlink:href="#aM"/><use transform="matrix(0.05,0,0,0.05,27,0)" xlink:href="#cr"/></g><path fill="#333" d="M195-6C206 82 75 100 31 46c-4-6-6-13-8-21l49-6c3 16 16 24 34 25 40 0 42-37 40-79-11 22-30 35-61 35-53 0-70-43-70-97 0-56 18-96 73-97 30 0 46 14 59 34l2-30h47zm-90-29c32 0 41-27 41-63 0-35-9-62-40-62-32 0-39 29-40 63 0 36 9 62 39 62" id="cs"/><g id="af"><use transform="matrix(0.05,0,0,0.05,0,0)" xlink:href="#aM"/><use transform="matrix(0.05,0,0,0.05,7,0)" xlink:href="#aO"/><use transform="matrix(0.05,0,0,0.05,12,0)" xlink:href="#cs"/><use transform="matrix(0.05,0,0,0.05,22.950000000000003,0)" xlink:href="#cc"/><use transform="matrix(0.05,0,0,0.05,33.900000000000006,0)" xlink:href="#aS"/></g><path fill="#333" d="M195 0l-88-114-31 24V0H24v-248h52v113l112-113h60L142-143 257 0h-62" id="ct"/><path fill="#333" d="M24 0v-248h195v40H76v63h132v40H76v65h150V0H24" id="cu"/><path fill="#333" d="M146-102V0H94v-102L6-248h54l60 105 60-105h54" id="cv"/><g id="ag"><use transform="matrix(0.05,0,0,0.05,0,0)" xlink:href="#ct"/><use transform="matrix(0.05,0,0,0.05,12.950000000000001,0)" xlink:href="#cu"/><use transform="matrix(0.05,0,0,0.05,24.950000000000003,0)" xlink:href="#cv"/><path fill="#333" d="M-.9.97h38.75v1.9H-.9z"/></g><g id="ah"><use transform="matrix(0.05,0,0,0.05,0,0)" xlink:href="#aQ"/><use transform="matrix(0.05,0,0,0.05,5,0)" xlink:href="#aS"/><use transform="matrix(0.05,0,0,0.05,10.95,0)" xlink:href="#aL"/><use transform="matrix(0.05,0,0,0.05,20.95,0)" xlink:href="#cd"/><use transform="matrix(0.05,0,0,0.05,36.95,0)" xlink:href="#ca"/><use transform="matrix(0.05,0,0,0.05,47.900000000000006,0)" xlink:href="#cc"/><use transform="matrix(0.05,0,0,0.05,58.85,0)" xlink:href="#aM"/><use transform="matrix(0.05,0,0,0.05,65.85000000000001,0)" xlink:href="#aL"/><use transform="matrix(0.05,0,0,0.05,75.85000000000001,0)" xlink:href="#aL"/></g><g id="ai"><use transform="matrix(0.05,0,0,0.05,0,0)" xlink:href="#bZ"/><use transform="matrix(0.05,0,0,0.05,10.5,0)" xlink:href="#aH"/><use transform="matrix(0.05,0,0,0.05,20.5,0)" xlink:href="#aD"/><use transform="matrix(0.05,0,0,0.05,25.5,0)" xlink:href="#aD"/><use transform="matrix(0.05,0,0,0.05,30.5,0)" xlink:href="#aF"/><use transform="matrix(0.05,0,0,0.05,36.45,0)" xlink:href="#aB"/><use transform="matrix(0.05,0,0,0.05,40.400000000000006,0)" xlink:href="#ce"/><use transform="matrix(0.05,0,0,0.05,50.400000000000006,0)" xlink:href="#cf"/><use transform="matrix(0.05,0,0,0.05,60.400000000000006,0)" xlink:href="#aD"/><use transform="matrix(0.05,0,0,0.05,65.4,0)" xlink:href="#aE"/><use transform="matrix(0.05,0,0,0.05,75.4,0)" xlink:href="#bh"/><use transform="matrix(0.05,0,0,0.05,86.35000000000001,0)" xlink:href="#bk"/><use transform="matrix(0.05,0,0,0.05,96.35000000000001,0)" xlink:href="#aF"/><use transform="matrix(0.05,0,0,0.05,102.30000000000001,0)" xlink:href="#aE"/><use transform="matrix(0.05,0,0,0.05,112.30000000000001,0)" xlink:href="#aE"/><use transform="matrix(0.05,0,0,0.05,122.30000000000001,0)" xlink:href="#bb"/></g><g id="aj"><use transform="matrix(0.05,0,0,0.05,0,0)" xlink:href="#bZ"/><use transform="matrix(0.05,0,0,0.05,10.5,0)" xlink:href="#aH"/><use transform="matrix(0.05,0,0,0.05,20.5,0)" xlink:href="#aD"/><use transform="matrix(0.05,0,0,0.05,25.5,0)" xlink:href="#aD"/><use transform="matrix(0.05,0,0,0.05,30.5,0)" xlink:href="#aF"/><use transform="matrix(0.05,0,0,0.05,36.45,0)" xlink:href="#aB"/><use transform="matrix(0.05,0,0,0.05,40.400000000000006,0)" xlink:href="#ce"/><use transform="matrix(0.05,0,0,0.05,50.400000000000006,0)" xlink:href="#cf"/><use transform="matrix(0.05,0,0,0.05,60.400000000000006,0)" xlink:href="#aD"/><use transform="matrix(0.05,0,0,0.05,65.4,0)" xlink:href="#aE"/><use transform="matrix(0.05,0,0,0.05,75.4,0)" xlink:href="#bh"/><use transform="matrix(0.05,0,0,0.05,86.35000000000001,0)" xlink:href="#bk"/><use transform="matrix(0.05,0,0,0.05,96.35000000000001,0)" xlink:href="#aF"/><use transform="matrix(0.05,0,0,0.05,102.30000000000001,0)" xlink:href="#aE"/><use transform="matrix(0.05,0,0,0.05,112.30000000000001,0)" xlink:href="#aE"/><use transform="matrix(0.05,0,0,0.05,122.30000000000001,0)" xlink:href="#bb"/></g><g id="ak"><use transform="matrix(0.05,0,0,0.05,0,0)" xlink:href="#aQ"/><use transform="matrix(0.05,0,0,0.05,5,0)" xlink:href="#aS"/><use transform="matrix(0.05,0,0,0.05,10.95,0)" xlink:href="#aL"/><use transform="matrix(0.05,0,0,0.05,20.95,0)" xlink:href="#cd"/><use transform="matrix(0.05,0,0,0.05,36.95,0)" xlink:href="#ca"/><use transform="matrix(0.05,0,0,0.05,46.550000000000004,0)" xlink:href="#cb"/><use transform="matrix(0.05,0,0,0.05,60.550000000000004,0)" xlink:href="#bV"/></g><g id="al"><use transform="matrix(0.05,0,0,0.05,0,0)" xlink:href="#bZ"/><use transform="matrix(0.05,0,0,0.05,10.5,0)" xlink:href="#aH"/><use transform="matrix(0.05,0,0,0.05,20.5,0)" xlink:href="#aD"/><use transform="matrix(0.05,0,0,0.05,25.5,0)" xlink:href="#aD"/><use transform="matrix(0.05,0,0,0.05,30.5,0)" xlink:href="#aF"/><use transform="matrix(0.05,0,0,0.05,36.45,0)" xlink:href="#aB"/><use transform="matrix(0.05,0,0,0.05,40.400000000000006,0)" xlink:href="#ce"/><use transform="matrix(0.05,0,0,0.05,50.400000000000006,0)" xlink:href="#cf"/><use transform="matrix(0.05,0,0,0.05,60.400000000000006,0)" xlink:href="#aD"/><use transform="matrix(0.05,0,0,0.05,65.4,0)" xlink:href="#aE"/><use transform="matrix(0.05,0,0,0.05,75.4,0)" xlink:href="#bh"/><use transform="matrix(0.05,0,0,0.05,85.35000000000001,0)" xlink:href="#bi"/><use transform="matrix(0.05,0,0,0.05,98.30000000000001,0)" xlink:href="#bj"/><use transform="matrix(0.05,0,0,0.05,108.30000000000001,0)" xlink:href="#bb"/></g><g id="am"><use transform="matrix(0.05,0,0,0.05,0,0)" xlink:href="#aQ"/><use transform="matrix(0.05,0,0,0.05,5,0)" xlink:href="#aS"/><use transform="matrix(0.05,0,0,0.05,10.95,0)" xlink:href="#aL"/><use transform="matrix(0.05,0,0,0.05,20.95,0)" xlink:href="#cd"/><use transform="matrix(0.05,0,0,0.05,36.95,0)" xlink:href="#ca"/><use transform="matrix(0.05,0,0,0.05,46.550000000000004,0)" xlink:href="#cb"/><use transform="matrix(0.05,0,0,0.05,60.550000000000004,0)" xlink:href="#bV"/></g><g id="an"><use transform="matrix(0.05,0,0,0.05,0,0)" xlink:href="#bZ"/><use transform="matrix(0.05,0,0,0.05,10.5,0)" xlink:href="#aH"/><use transform="matrix(0.05,0,0,0.05,20.5,0)" xlink:href="#aD"/><use transform="matrix(0.05,0,0,0.05,25.5,0)" xlink:href="#aD"/><use transform="matrix(0.05,0,0,0.05,30.5,0)" xlink:href="#aF"/><use transform="matrix(0.05,0,0,0.05,36.45,0)" xlink:href="#aB"/><use transform="matrix(0.05,0,0,0.05,40.400000000000006,0)" xlink:href="#ce"/><use transform="matrix(0.05,0,0,0.05,50.400000000000006,0)" xlink:href="#cf"/><use transform="matrix(0.05,0,0,0.05,60.400000000000006,0)" xlink:href="#aD"/><use transform="matrix(0.05,0,0,0.05,65.4,0)" xlink:href="#aE"/><use transform="matrix(0.05,0,0,0.05,75.4,0)" xlink:href="#bh"/><use transform="matrix(0.05,0,0,0.05,85.35000000000001,0)" xlink:href="#bi"/><use transform="matrix(0.05,0,0,0.05,98.30000000000001,0)" xlink:href="#bj"/><use transform="matrix(0.05,0,0,0.05,108.30000000000001,0)" xlink:href="#bb"/></g><g id="ao"><use transform="matrix(0.05,0,0,0.05,0,0)" xlink:href="#aQ"/><use transform="matrix(0.05,0,0,0.05,5,0)" xlink:href="#aS"/><use transform="matrix(0.05,0,0,0.05,10.95,0)" xlink:href="#aL"/><use transform="matrix(0.05,0,0,0.05,20.95,0)" xlink:href="#cd"/></g><g id="ap"><use transform="matrix(0.05,0,0,0.05,0,0)" xlink:href="#bY"/><use transform="matrix(0.05,0,0,0.05,14,0)" xlink:href="#aR"/><use transform="matrix(0.05,0,0,0.05,24.950000000000003,0)" xlink:href="#aL"/><use transform="matrix(0.05,0,0,0.05,34.95,0)" xlink:href="#ca"/><use transform="matrix(0.05,0,0,0.05,44.550000000000004,0)" xlink:href="#cb"/><use transform="matrix(0.05,0,0,0.05,58.550000000000004,0)" xlink:href="#bV"/><use transform="matrix(0.05,0,0,0.05,69.5,0)" xlink:href="#ca"/><use transform="matrix(0.05,0,0,0.05,80.45,0)" xlink:href="#cc"/><use transform="matrix(0.05,0,0,0.05,91.4,0)" xlink:href="#aL"/><use transform="matrix(0.05,0,0,0.05,101.4,0)" xlink:href="#aL"/></g><g id="aq"><use transform="matrix(0.05,0,0,0.05,0,0)" xlink:href="#aQ"/><use transform="matrix(0.05,0,0,0.05,5,0)" xlink:href="#aR"/><use transform="matrix(0.05,0,0,0.05,15.950000000000001,0)" xlink:href="#aS"/><use transform="matrix(0.05,0,0,0.05,21.900000000000002,0)" xlink:href="#aL"/><use transform="matrix(0.05,0,0,0.05,31.900000000000002,0)" xlink:href="#aM"/><use transform="matrix(0.05,0,0,0.05,38.900000000000006,0)" xlink:href="#aT"/><use transform="matrix(0.05,0,0,0.05,44.85000000000001,0)" xlink:href="#aU"/><use transform="matrix(0.05,0,0,0.05,54.85,0)" xlink:href="#aP"/><use transform="matrix(0.05,0,0,0.05,64.85000000000001,0)" xlink:href="#aL"/></g><g id="ar"><use transform="matrix(0.05,0,0,0.05,0,0)" xlink:href="#bZ"/><use transform="matrix(0.05,0,0,0.05,10.5,0)" xlink:href="#aH"/><use transform="matrix(0.05,0,0,0.05,20.5,0)" xlink:href="#aD"/><use transform="matrix(0.05,0,0,0.05,25.5,0)" xlink:href="#aD"/><use transform="matrix(0.05,0,0,0.05,30.5,0)" xlink:href="#aF"/><use transform="matrix(0.05,0,0,0.05,36.45,0)" xlink:href="#aB"/><use transform="matrix(0.05,0,0,0.05,40.400000000000006,0)" xlink:href="#ce"/><use transform="matrix(0.05,0,0,0.05,50.400000000000006,0)" xlink:href="#cf"/><use transform="matrix(0.05,0,0,0.05,60.400000000000006,0)" xlink:href="#aD"/><use transform="matrix(0.05,0,0,0.05,65.4,0)" xlink:href="#aE"/><use transform="matrix(0.05,0,0,0.05,75.4,0)" xlink:href="#bg"/><use transform="matrix(0.05,0,0,0.05,89.4,0)" xlink:href="#aC"/><use transform="matrix(0.05,0,0,0.05,99.4,0)" xlink:href="#aE"/><use transform="matrix(0.05,0,0,0.05,109.4,0)" xlink:href="#bh"/><use transform="matrix(0.05,0,0,0.05,119.35000000000001,0)" xlink:href="#bi"/><use transform="matrix(0.05,0,0,0.05,132.3,0)" xlink:href="#bj"/><use transform="matrix(0.05,0,0,0.05,142.3,0)" xlink:href="#bh"/><use transform="matrix(0.05,0,0,0.05,153.25,0)" xlink:href="#bk"/><use transform="matrix(0.05,0,0,0.05,163.25,0)" xlink:href="#aF"/><use transform="matrix(0.05,0,0,0.05,169.2,0)" xlink:href="#aE"/><use transform="matrix(0.05,0,0,0.05,179.2,0)" xlink:href="#aE"/><use transform="matrix(0.05,0,0,0.05,189.2,0)" xlink:href="#bb"/></g><g id="as"><use transform="matrix(0.05,0,0,0.05,0,0)" xlink:href="#aK"/><use transform="matrix(0.05,0,0,0.05,12,0)" xlink:href="#aL"/><use transform="matrix(0.05,0,0,0.05,22,0)" xlink:href="#aM"/><use transform="matrix(0.05,0,0,0.05,29,0)" xlink:href="#aN"/><use transform="matrix(0.05,0,0,0.05,39,0)" xlink:href="#aO"/><use transform="matrix(0.05,0,0,0.05,44,0)" xlink:href="#aP"/><use transform="matrix(0.05,0,0,0.05,54,0)" xlink:href="#aL"/></g><g id="at"><use transform="matrix(0.05,0,0,0.05,0,0)" xlink:href="#aV"/><use transform="matrix(0.05,0,0,0.05,10,0)" xlink:href="#aE"/><use transform="matrix(0.05,0,0,0.05,20,0)" xlink:href="#aD"/><use transform="matrix(0.05,0,0,0.05,25,0)" xlink:href="#aW"/><use transform="matrix(0.05,0,0,0.05,30,0)" xlink:href="#aD"/><use transform="matrix(0.05,0,0,0.05,35,0)" xlink:href="#aE"/><use transform="matrix(0.05,0,0,0.05,45,0)" xlink:href="#aX"/><use transform="matrix(0.05,0,0,0.05,59.95,0)" xlink:href="#aY"/><use transform="matrix(0.05,0,0,0.05,68.95,0)" xlink:href="#aZ"/><use transform="matrix(0.05,0,0,0.05,74.9,0)" xlink:href="#ba"/><use transform="matrix(0.05,0,0,0.05,80.85000000000001,0)" xlink:href="#bb"/></g><g id="au"><use transform="matrix(0.05,0,0,0.05,0,0)" xlink:href="#bc"/><use transform="matrix(0.05,0,0,0.05,12,0)" xlink:href="#aF"/><use transform="matrix(0.05,0,0,0.05,17.95,0)" xlink:href="#aF"/><use transform="matrix(0.05,0,0,0.05,23.9,0)" xlink:href="#aH"/><use transform="matrix(0.05,0,0,0.05,33.9,0)" xlink:href="#bd"/><use transform="matrix(0.05,0,0,0.05,42.9,0)" xlink:href="#be"/><use transform="matrix(0.05,0,0,0.05,52.900000000000006,0)" xlink:href="#aB"/><use transform="matrix(0.05,0,0,0.05,56.85,0)" xlink:href="#aY"/><use transform="matrix(0.05,0,0,0.05,65.85,0)" xlink:href="#aD"/><use transform="matrix(0.05,0,0,0.05,70.85,0)" xlink:href="#bf"/><use transform="matrix(0.05,0,0,0.05,81.35,0)" xlink:href="#aW"/><use transform="matrix(0.05,0,0,0.05,86.35,0)" xlink:href="#aD"/><use transform="matrix(0.05,0,0,0.05,91.35,0)" xlink:href="#aE"/><use transform="matrix(0.05,0,0,0.05,101.35,0)" xlink:href="#aX"/><use transform="matrix(0.05,0,0,0.05,116.30000000000001,0)" xlink:href="#bg"/><use transform="matrix(0.05,0,0,0.05,130.3,0)" xlink:href="#aC"/><use transform="matrix(0.05,0,0,0.05,140.3,0)" xlink:href="#aE"/><use transform="matrix(0.05,0,0,0.05,150.3,0)" xlink:href="#bh"/><use transform="matrix(0.05,0,0,0.05,160.25,0)" xlink:href="#bi"/><use transform="matrix(0.05,0,0,0.05,173.2,0)" xlink:href="#bj"/><use transform="matrix(0.05,0,0,0.05,183.2,0)" xlink:href="#bh"/><use transform="matrix(0.05,0,0,0.05,194.14999999999998,0)" xlink:href="#bk"/><use transform="matrix(0.05,0,0,0.05,204.14999999999998,0)" xlink:href="#aF"/><use transform="matrix(0.05,0,0,0.05,210.09999999999997,0)" xlink:href="#aE"/><use transform="matrix(0.05,0,0,0.05,220.09999999999997,0)" xlink:href="#aE"/><use transform="matrix(0.05,0,0,0.05,230.09999999999997,0)" xlink:href="#bl"/></g><g id="av"><use transform="matrix(0.05,0,0,0.05,0,0)" xlink:href="#aV"/><use transform="matrix(0.05,0,0,0.05,10,0)" xlink:href="#aE"/><use transform="matrix(0.05,0,0,0.05,20,0)" xlink:href="#aD"/><use transform="matrix(0.05,0,0,0.05,25,0)" xlink:href="#aW"/><use transform="matrix(0.05,0,0,0.05,30,0)" xlink:href="#aD"/><use transform="matrix(0.05,0,0,0.05,35,0)" xlink:href="#aE"/><use transform="matrix(0.05,0,0,0.05,45,0)" xlink:href="#aX"/><use transform="matrix(0.05,0,0,0.05,59.95,0)" xlink:href="#aZ"/><use transform="matrix(0.05,0,0,0.05,65.9,0)" xlink:href="#aW"/><use transform="matrix(0.05,0,0,0.05,70.9,0)" xlink:href="#bm"/><use transform="matrix(0.05,0,0,0.05,83.85000000000001,0)" xlink:href="#bb"/></g><g id="aw"><use transform="matrix(0.05,0,0,0.05,0,0)" xlink:href="#aB"/><use transform="matrix(0.05,0,0,0.05,3.95,0)" xlink:href="#aC"/><use transform="matrix(0.05,0,0,0.05,13.949999999999998,0)" xlink:href="#aD"/><use transform="matrix(0.05,0,0,0.05,18.95,0)" xlink:href="#ba"/><use transform="matrix(0.05,0,0,0.05,24.9,0)" xlink:href="#bb"/></g><g id="ax"><use transform="matrix(0.05,0,0,0.05,0,0)" xlink:href="#aW"/><use transform="matrix(0.05,0,0,0.05,5,0)" xlink:href="#aD"/><use transform="matrix(0.05,0,0,0.05,10,0)" xlink:href="#aE"/><use transform="matrix(0.05,0,0,0.05,20,0)" xlink:href="#aX"/><use transform="matrix(0.05,0,0,0.05,34.95,0)" xlink:href="#bg"/><use transform="matrix(0.05,0,0,0.05,48.95,0)" xlink:href="#aC"/><use transform="matrix(0.05,0,0,0.05,58.95,0)" xlink:href="#bh"/><use transform="matrix(0.05,0,0,0.05,68.9,0)" xlink:href="#bi"/><use transform="matrix(0.05,0,0,0.05,81.85000000000001,0)" xlink:href="#bj"/><use transform="matrix(0.05,0,0,0.05,91.85000000000001,0)" xlink:href="#bh"/><use transform="matrix(0.05,0,0,0.05,102.80000000000001,0)" xlink:href="#bk"/><use transform="matrix(0.05,0,0,0.05,112.80000000000001,0)" xlink:href="#aF"/><use transform="matrix(0.05,0,0,0.05,118.75,0)" xlink:href="#aE"/><use transform="matrix(0.05,0,0,0.05,128.75,0)" xlink:href="#aE"/></g><g id="ay"><use transform="matrix(0.05,0,0,0.05,0,0)" xlink:href="#aQ"/><use transform="matrix(0.05,0,0,0.05,5,0)" xlink:href="#aS"/><use transform="matrix(0.05,0,0,0.05,10.95,0)" xlink:href="#aL"/><use transform="matrix(0.05,0,0,0.05,20.95,0)" xlink:href="#cd"/><use transform="matrix(0.05,0,0,0.05,36.95,0)" xlink:href="#bY"/><use transform="matrix(0.05,0,0,0.05,50.95,0)" xlink:href="#aR"/><use transform="matrix(0.05,0,0,0.05,61.900000000000006,0)" xlink:href="#aL"/><use transform="matrix(0.05,0,0,0.05,71.9,0)" xlink:href="#ca"/><use transform="matrix(0.05,0,0,0.05,81.50000000000001,0)" xlink:href="#cb"/><use transform="matrix(0.05,0,0,0.05,95.50000000000001,0)" xlink:href="#bV"/><use transform="matrix(0.05,0,0,0.05,106.45,0)" xlink:href="#ca"/><use transform="matrix(0.05,0,0,0.05,117.40000000000003,0)" xlink:href="#cc"/><use transform="matrix(0.05,0,0,0.05,128.35000000000002,0)" xlink:href="#aM"/><use transform="matrix(0.05,0,0,0.05,135.35000000000002,0)" xlink:href="#aL"/><use transform="matrix(0.05,0,0,0.05,145.35000000000002,0)" xlink:href="#aL"/></g><g id="az"><use transform="matrix(0.05,0,0,0.05,0,0)" xlink:href="#bZ"/><use transform="matrix(0.05,0,0,0.05,10.5,0)" xlink:href="#aH"/><use transform="matrix(0.05,0,0,0.05,20.5,0)" xlink:href="#aD"/><use transform="matrix(0.05,0,0,0.05,25.5,0)" xlink:href="#aD"/><use transform="matrix(0.05,0,0,0.05,30.5,0)" xlink:href="#aF"/><use transform="matrix(0.05,0,0,0.05,36.45,0)" xlink:href="#aB"/><use transform="matrix(0.05,0,0,0.05,40.400000000000006,0)" xlink:href="#ce"/><use transform="matrix(0.05,0,0,0.05,50.400000000000006,0)" xlink:href="#cf"/><use transform="matrix(0.05,0,0,0.05,60.400000000000006,0)" xlink:href="#aD"/><use transform="matrix(0.05,0,0,0.05,65.4,0)" xlink:href="#aE"/><use transform="matrix(0.05,0,0,0.05,75.4,0)" xlink:href="#bg"/><use transform="matrix(0.05,0,0,0.05,89.4,0)" xlink:href="#aC"/><use transform="matrix(0.05,0,0,0.05,99.4,0)" xlink:href="#aE"/><use transform="matrix(0.05,0,0,0.05,109.4,0)" xlink:href="#bh"/><use transform="matrix(0.05,0,0,0.05,119.35000000000001,0)" xlink:href="#bi"/><use transform="matrix(0.05,0,0,0.05,132.3,0)" xlink:href="#bj"/><use transform="matrix(0.05,0,0,0.05,142.3,0)" xlink:href="#bh"/><use transform="matrix(0.05,0,0,0.05,153.25,0)" xlink:href="#bk"/><use transform="matrix(0.05,0,0,0.05,163.25,0)" xlink:href="#aF"/><use transform="matrix(0.05,0,0,0.05,169.2,0)" xlink:href="#aE"/><use transform="matrix(0.05,0,0,0.05,179.2,0)" xlink:href="#aE"/><use transform="matrix(0.05,0,0,0.05,189.2,0)" xlink:href="#bb"/></g></defs></g></svg>